<svg xmlns="http://www.w3.org/2000/svg" xmlns:xlink="http://www.w3.org/1999/xlink" viewBox="0 0 1543.65 1224.54"><defs><style>.cls-1{fill:#fff;}.cls-2{fill:#1f3d86;}.cls-3{font-size:8.83px;stroke-width:0.74px;}.cls-10,.cls-12,.cls-3,.cls-5,.cls-7,.cls-8{fill:#00101e;font-family:MyriadPro-Regular, Myriad Pro;}.cls-10,.cls-11,.cls-12,.cls-3,.cls-4,.cls-5,.cls-6,.cls-7,.cls-8,.cls-9{stroke:#00101e;stroke-miterlimit:10;}.cls-11,.cls-4,.cls-6,.cls-9{fill:none;}.cls-4{stroke-width:0.97px;}.cls-5{font-size:8.44px;}.cls-5,.cls-7{stroke-width:0.7px;}.cls-6{stroke-width:0.93px;}.cls-7{font-size:8.44px;}.cls-8{font-size:7.8px;stroke-width:0.65px;}.cls-9{stroke-width:0.86px;}.cls-10{font-size:8.54px;}.cls-10,.cls-12{stroke-width:0.71px;}.cls-11{stroke-width:0.94px;}.cls-12{font-size:8.54px;}.cls-13{fill:#19488f;}</style></defs><g id="Layer_2" data-name="Layer 2"><g id="Layer_1-2" data-name="Layer 1"><rect class="cls-1" x="914.11" y="894.82" width="518.36" height="253.52" rx="56.13"/><path class="cls-2" d="M1011.47,929.41a8.92,8.92,0,0,1,9.19,9.15,8.8,8.8,0,0,1-2.61,6.51,9,9,0,0,1-6.58,2.59h-7.8v11.26h-2.23V929.41Zm0,16.14a6.75,6.75,0,0,0,5-2,7.45,7.45,0,0,0,0-10.07,6.75,6.75,0,0,0-5-2h-7.8v14Z"/><path class="cls-2" d="M1042.62,937.84h2.15v21.08h-2.15v-4.77a9.93,9.93,0,0,1-3.71,3.84,10.31,10.31,0,0,1-5.35,1.39,11,11,0,0,1,0-22,10.31,10.31,0,0,1,5.35,1.39,9.83,9.83,0,0,1,3.71,3.83Zm-15.24,16.9a8.59,8.59,0,0,0,6.35,2.62,8.49,8.49,0,0,0,6.32-2.62,9.17,9.17,0,0,0,0-12.73,8.52,8.52,0,0,0-6.32-2.61,8.62,8.62,0,0,0-6.35,2.61,9.12,9.12,0,0,0,0,12.73Z"/><path class="cls-2" d="M1060.92,959.38a10.75,10.75,0,0,1-7.93-3.16,11.31,11.31,0,0,1,0-15.68,11.47,11.47,0,0,1,13.49-1.71,8.68,8.68,0,0,1,3.63,3.94l-1.73,1a7.13,7.13,0,0,0-2.93-3.2,8.75,8.75,0,0,0-4.53-1.18,8.62,8.62,0,0,0-6.37,2.59,9.22,9.22,0,0,0,0,12.77,8.63,8.63,0,0,0,6.37,2.6,8.84,8.84,0,0,0,4.53-1.18,7.92,7.92,0,0,0,3-3.21l1.77,1.06a9.49,9.49,0,0,1-3.77,3.9A10.9,10.9,0,0,1,1060.92,959.38Z"/><path class="cls-2" d="M1091.06,958.92h-2.87L1077,948.56v10.36h-2.11V929.41H1077v18l10.66-9.57h3L1079.3,948Z"/><path class="cls-2" d="M1111.71,937.84h2.15v21.08h-2.15v-4.77A9.93,9.93,0,0,1,1108,958a10.31,10.31,0,0,1-5.35,1.39,11,11,0,0,1,0-22,10.31,10.31,0,0,1,5.35,1.39,9.83,9.83,0,0,1,3.71,3.83Zm-15.24,16.9a8.59,8.59,0,0,0,6.35,2.62,8.49,8.49,0,0,0,6.32-2.62,9.17,9.17,0,0,0,0-12.73,8.52,8.52,0,0,0-6.32-2.61,8.62,8.62,0,0,0-6.35,2.61,9.12,9.12,0,0,0,0,12.73Z"/><path class="cls-2" d="M1139.07,937.84h2.11v20.07a9.19,9.19,0,0,1-3,7.25,10.86,10.86,0,0,1-7.5,2.65,13.2,13.2,0,0,1-6.2-1.35,8.41,8.41,0,0,1-3.75-3.71l1.86-1q2,4.08,8.09,4.09a8.56,8.56,0,0,0,6.16-2.13,7.57,7.57,0,0,0,2.23-5.75V954a9.81,9.81,0,0,1-3.69,3.92,10.27,10.27,0,0,1-5.37,1.43,11,11,0,1,1,0-22,10.18,10.18,0,0,1,5.37,1.43,9.75,9.75,0,0,1,3.69,3.92Zm-15.28,16.9a9,9,0,0,0,12.69,0,8.94,8.94,0,1,0-12.69,0Z"/><path class="cls-2" d="M1157.15,937.38a9.56,9.56,0,0,1,7.53,3.28,11.49,11.49,0,0,1,2.89,7.8c0,.11,0,.28,0,.51s0,.39,0,.5h-19.09a8.55,8.55,0,0,0,2.84,5.72,9.69,9.69,0,0,0,10.52,1.11,7.19,7.19,0,0,0,2.87-2.78l1.85,1.1a9.28,9.28,0,0,1-3.71,3.47,11.4,11.4,0,0,1-5.48,1.29,10.82,10.82,0,0,1-8-3.1,10.65,10.65,0,0,1-3.11-7.9,10.79,10.79,0,0,1,3-7.86A10.47,10.47,0,0,1,1157.15,937.38Zm0,2a8.45,8.45,0,0,0-6,2.23,8.72,8.72,0,0,0-2.74,5.78h16.94a8.63,8.63,0,0,0-2.67-5.88A8,8,0,0,0,1157.15,939.4Z"/><path class="cls-2" d="M1191.09,929.41h2.11v29.51h-2.11V954a9.81,9.81,0,0,1-3.69,3.92,10.28,10.28,0,0,1-5.38,1.43,10.53,10.53,0,0,1-7.73-3.18,11.21,11.21,0,0,1,0-15.64,10.53,10.53,0,0,1,7.73-3.18,10.19,10.19,0,0,1,5.38,1.43,9.75,9.75,0,0,1,3.69,3.92Zm-15.28,25.33a9,9,0,0,0,12.69,0,9.12,9.12,0,0,0,0-12.73,9,9,0,0,0-12.69,0,9.12,9.12,0,0,0,0,12.73Z"/><path class="cls-2" d="M1213.18,932.25a1.67,1.67,0,0,1-2.36,0,1.58,1.58,0,0,1-.51-1.2,1.56,1.56,0,0,1,.51-1.16,1.65,1.65,0,0,1,1.18-.48,1.66,1.66,0,0,1,1.18.48,1.58,1.58,0,0,1,.5,1.16A1.61,1.61,0,0,1,1213.18,932.25Zm-2.24,26.67V937.84h2.11v21.08Z"/><path class="cls-2" d="M1229.19,937.38a7.9,7.9,0,0,1,6,2.29,8.46,8.46,0,0,1,2.21,6.14v13.11h-2.15V945.81a6.56,6.56,0,0,0-1.62-4.68,6,6,0,0,0-4.57-1.73,7.07,7.07,0,0,0-5.32,2.15q-2.06,2.15-2.06,6.24v11.13h-2.11V937.84h2.11v4A7.83,7.83,0,0,1,1229.19,937.38Z"/><path class="cls-2" d="M1273.12,929.41v2.11h-9.27v27.4h-2.28v-27.4h-9.27v-2.11Z"/><path class="cls-2" d="M1283,937.38a9.53,9.53,0,0,1,7.52,3.28,11.49,11.49,0,0,1,2.89,7.8c0,.11,0,.28,0,.51s0,.39,0,.5h-19.1a8.51,8.51,0,0,0,2.85,5.72,9.68,9.68,0,0,0,10.51,1.11,7.19,7.19,0,0,0,2.87-2.78l1.85,1.1a9.22,9.22,0,0,1-3.71,3.47,11.37,11.37,0,0,1-5.48,1.29,10.8,10.8,0,0,1-8-3.1,10.65,10.65,0,0,1-3.12-7.9,10.83,10.83,0,0,1,3.05-7.86A10.48,10.48,0,0,1,1283,937.38Zm0,2a8.45,8.45,0,0,0-6,2.23,8.72,8.72,0,0,0-2.74,5.78h17a8.69,8.69,0,0,0-2.68-5.88A8,8,0,0,0,1283,939.4Z"/><path class="cls-2" d="M1308.53,939.91h-6.28v13.7a4,4,0,0,0,.67,2.61,2.83,2.83,0,0,0,2.07.9,20.12,20.12,0,0,0,3.54-.1v1.9c-2.84.42-5,.22-6.35-.59s-2.08-2.39-2.08-4.72v-13.7h-4.64v-2.07h4.64v-5.27l2.15-.63v5.9h6.28Z"/><path class="cls-2" d="M1315.69,942q1.9-4.43,7-4.43v2a7,7,0,0,0-5,1.92,7.5,7.5,0,0,0-2,5.71v11.72h-2.1V937.84h2.1Z"/><path class="cls-2" d="M1344.28,937.84h2.15v21.08h-2.15v-4.77a10,10,0,0,1-3.71,3.84,10.35,10.35,0,0,1-5.36,1.39,11,11,0,0,1,0-22,10.35,10.35,0,0,1,5.36,1.39,9.9,9.9,0,0,1,3.71,3.83ZM1329,954.74a9,9,0,0,0,12.66,0,9.14,9.14,0,0,0,0-12.73,9,9,0,0,0-12.66,0,9.09,9.09,0,0,0,0,12.73Z"/><path class="cls-2" d="M1011.47,981.19a8.94,8.94,0,0,1,9.19,9.15,8.8,8.8,0,0,1-2.61,6.51,9,9,0,0,1-6.58,2.6h-7.8v11.25h-2.23V981.19Zm0,16.15a6.75,6.75,0,0,0,5-2,7.46,7.46,0,0,0,0-10.08,6.75,6.75,0,0,0-5-2h-7.8v14Z"/><path class="cls-2" d="M1042.62,989.62h2.15v21.08h-2.15v-4.76a9.83,9.83,0,0,1-3.71,3.83,10.31,10.31,0,0,1-5.35,1.39,11,11,0,0,1,0-22,10.31,10.31,0,0,1,5.35,1.39,9.93,9.93,0,0,1,3.71,3.84Zm-15.24,16.91a8.62,8.62,0,0,0,6.35,2.61,8.52,8.52,0,0,0,6.32-2.61,9.17,9.17,0,0,0,0-12.73,8.49,8.49,0,0,0-6.32-2.62,8.59,8.59,0,0,0-6.35,2.62,9.12,9.12,0,0,0,0,12.73Z"/><path class="cls-2" d="M1060.92,1011.16A10.75,10.75,0,0,1,1053,1008a11.31,11.31,0,0,1,0-15.68,11.47,11.47,0,0,1,13.49-1.71,8.73,8.73,0,0,1,3.63,3.94l-1.73,1a7.15,7.15,0,0,0-2.93-3.21,8.84,8.84,0,0,0-4.53-1.18,8.83,8.83,0,0,0-8.94,9,8.74,8.74,0,0,0,2.57,6.39,8.62,8.62,0,0,0,6.37,2.59,8.75,8.75,0,0,0,4.53-1.18,7.89,7.89,0,0,0,3-3.2l1.77,1a9.49,9.49,0,0,1-3.77,3.9A10.9,10.9,0,0,1,1060.92,1011.16Z"/><path class="cls-2" d="M1091.06,1010.7h-2.87L1077,1000.35v10.35h-2.11V981.19H1077v18l10.66-9.57h3l-11.34,10.12Z"/><path class="cls-2" d="M1132.11,989.62h2.08l-6.5,21.08h-2.32l-5.92-18.11-5.91,18.11h-2.33l-6.54-21.08h2.17l5.67,18.34,5.9-18.34h2.26l5.85,18.19Z"/><path class="cls-2" d="M1141.22,984a1.69,1.69,0,0,1-2.36,0,1.61,1.61,0,0,1-.51-1.2,1.54,1.54,0,0,1,.51-1.16,1.67,1.67,0,0,1,2.36,0,1.54,1.54,0,0,1,.51,1.16A1.61,1.61,0,0,1,1141.22,984ZM1139,1010.7V989.62h2.1v21.08Z"/><path class="cls-2" d="M1158.38,991.69h-6.28v13.7a4,4,0,0,0,.67,2.61,2.83,2.83,0,0,0,2.06.91,21.44,21.44,0,0,0,3.55-.11v1.9q-4.26.63-6.35-.59t-2.09-4.72v-13.7h-4.63v-2.07h4.63v-5.27l2.16-.63v5.9h6.28Z"/><path class="cls-2" d="M1173.09,989.16a7.85,7.85,0,0,1,6,2.3,8.44,8.44,0,0,1,2.22,6.13v13.11h-2.15V997.59a6.57,6.57,0,0,0-1.63-4.68,6,6,0,0,0-4.57-1.73,7,7,0,0,0-5.31,2.15,8.67,8.67,0,0,0-2.07,6.24v11.13h-2.11V981.19h2.11v12.44A7.83,7.83,0,0,1,1173.09,989.16Z"/><path class="cls-2" d="M1196.19,981.19h17.87v2.11l-11.46,27.4h-2.32l11.46-27.4h-15.55Z"/><path class="cls-2" d="M1224.58,993.21a10.32,10.32,0,0,1,7,2.42,9,9,0,0,1,0,13.11,10.34,10.34,0,0,1-7,2.42,10.88,10.88,0,0,1-5.8-1.56,8.08,8.08,0,0,1-3.52-4.38l1.9-1.1a6.32,6.32,0,0,0,2.7,3.63,8.6,8.6,0,0,0,4.72,1.26,8,8,0,0,0,5.46-1.85,6.9,6.9,0,0,0,0-9.95,8,8,0,0,0-5.46-1.85h-7.89l.95-14.17h15.66v2.11h-13.61l-.65,9.91Z"/><path class="cls-2" d="M1244.41,993.29a6.28,6.28,0,0,1-4.61-1.81,6.35,6.35,0,0,1,0-8.94,6.79,6.79,0,0,1,9.23,0,6.4,6.4,0,0,1,0,8.94A6.27,6.27,0,0,1,1244.41,993.29Zm-4.85,13.62,20-22.51,1.43.8L1241,1007.71Zm1.73-16.8a4.2,4.2,0,0,0,3.12,1.24,4.34,4.34,0,1,0,0-8.68,4.2,4.2,0,0,0-3.12,1.24,4.55,4.55,0,0,0,0,6.2Zm19.67,19.24a6.79,6.79,0,0,1-9.23,0,6.35,6.35,0,0,1,0-8.94,6.79,6.79,0,0,1,9.23,0,6.37,6.37,0,0,1,0,8.94Zm-7.74-1.37a4.2,4.2,0,0,0,3.12,1.24,4.21,4.21,0,1,0-3.12-1.24Z"/><path class="cls-2" d="M1011.47,1033a8.92,8.92,0,0,1,9.19,9.14,8.81,8.81,0,0,1-2.61,6.52,9,9,0,0,1-6.58,2.59h-7.8v11.25h-2.23V1033Zm0,16.14a6.75,6.75,0,0,0,5-2,6.86,6.86,0,0,0,2-5,6.94,6.94,0,0,0-2-5.06,6.75,6.75,0,0,0-5-2h-7.8v14Z"/><path class="cls-2" d="M1042.62,1041.41h2.15v21.07h-2.15v-4.76a9.93,9.93,0,0,1-3.71,3.84,10.94,10.94,0,0,1-13.06-1.8,11,11,0,0,1,7.71-18.82,10.41,10.41,0,0,1,5.35,1.39,9.93,9.93,0,0,1,3.71,3.84Zm-15.24,16.9a8.62,8.62,0,0,0,6.35,2.61,8.52,8.52,0,0,0,6.32-2.61,9.17,9.17,0,0,0,0-12.73,8.52,8.52,0,0,0-6.32-2.61,8.62,8.62,0,0,0-6.35,2.61,9.12,9.12,0,0,0,0,12.73Z"/><path class="cls-2" d="M1062.43,1040.94a10.53,10.53,0,0,1,7.74,3.18,11.21,11.21,0,0,1,0,15.64,10.5,10.5,0,0,1-7.74,3.19,10.19,10.19,0,0,1-5.37-1.44,9.75,9.75,0,0,1-3.69-3.92v13.32h-2.11v-29.5h2.11v4.89a9.75,9.75,0,0,1,3.69-3.92A10.19,10.19,0,0,1,1062.43,1040.94Zm-6.47,17.37a9.12,9.12,0,1,0-2.59-6.37A8.62,8.62,0,0,0,1056,1058.31Z"/><path class="cls-2" d="M1087.94,1040.94a9.53,9.53,0,0,1,7.52,3.29,11.4,11.4,0,0,1,2.89,7.8c0,.11,0,.28,0,.5s0,.4,0,.51h-19.1a8.47,8.47,0,0,0,2.85,5.71,8.86,8.86,0,0,0,6.09,2.17,9,9,0,0,0,4.42-1.05,7.19,7.19,0,0,0,2.87-2.78l1.86,1.09a9.37,9.37,0,0,1-3.71,3.48,11.43,11.43,0,0,1-5.48,1.29,10.85,10.85,0,0,1-8-3.1,10.68,10.68,0,0,1-3.12-7.91,10.83,10.83,0,0,1,3.06-7.86A10.48,10.48,0,0,1,1087.94,1040.94Zm0,2a8.45,8.45,0,0,0-6,2.23,8.74,8.74,0,0,0-2.74,5.78h17a8.69,8.69,0,0,0-2.68-5.89A8,8,0,0,0,1087.94,1043Z"/><path class="cls-2" d="M1105.39,1045.54q1.89-4.43,7-4.43v2a7,7,0,0,0-5,1.92,7.52,7.52,0,0,0-2,5.71v11.72h-2.11v-21.07h2.11Z"/><path class="cls-2" d="M1116.26,1050.47v-2h15.18v2Z"/><path class="cls-2" d="M1149.48,1040.94a10.53,10.53,0,0,1,7.74,3.18,11.21,11.21,0,0,1,0,15.64,10.5,10.5,0,0,1-7.74,3.19,10.16,10.16,0,0,1-5.37-1.44,9.75,9.75,0,0,1-3.69-3.92v4.89h-2.11V1033h2.11v13.32a9.75,9.75,0,0,1,3.69-3.92A10.16,10.16,0,0,1,1149.48,1040.94Zm-6.47,17.37a9,9,0,0,0,12.69,0,9,9,0,0,0-6.35-15.34,8.88,8.88,0,0,0-8.93,9A8.68,8.68,0,0,0,1143,1058.31Z"/><path class="cls-2" d="M1184.05,1041.41h2.15v21.07h-2.15v-4.76a10,10,0,0,1-3.71,3.84,11,11,0,0,1-13.07-1.8,11,11,0,0,1,7.71-18.82,10.44,10.44,0,0,1,5.36,1.39,10,10,0,0,1,3.71,3.84Zm-15.24,16.9a9,9,0,0,0,12.67,0,9.17,9.17,0,0,0,0-12.73,9,9,0,0,0-12.67,0,9.12,9.12,0,0,0,0,12.73Z"/><path class="cls-2" d="M1194.12,1046.86a2.73,2.73,0,0,0,1.32,2.41,10.91,10.91,0,0,0,3.2,1.36l3.77,1a6.81,6.81,0,0,1,3.19,1.82,4.78,4.78,0,0,1,1.3,3.52,5.29,5.29,0,0,1-2.09,4.3,8.38,8.38,0,0,1-5.46,1.69,9.56,9.56,0,0,1-5.12-1.29,6.77,6.77,0,0,1-2.89-3.39l1.81-1.06a5,5,0,0,0,2.22,2.72,7.51,7.51,0,0,0,4,1,6.86,6.86,0,0,0,3.9-1,3.33,3.33,0,0,0,1.54-2.93,2.9,2.9,0,0,0-1.31-2.48,9.69,9.69,0,0,0-3.18-1.42l-3.78-1a7.12,7.12,0,0,1-3.2-1.76,4.47,4.47,0,0,1-1.3-3.37,5.39,5.39,0,0,1,2-4.26,7.61,7.61,0,0,1,5.16-1.73,8.32,8.32,0,0,1,4.41,1.14,6.9,6.9,0,0,1,2.76,3.08l-1.77,1a4.67,4.67,0,0,0-2.11-2.38,6.61,6.61,0,0,0-3.29-.82,6,6,0,0,0-3.6,1A3.34,3.34,0,0,0,1194.12,1046.86Z"/><path class="cls-2" d="M1220.85,1040.94a9.53,9.53,0,0,1,7.52,3.29,11.4,11.4,0,0,1,2.89,7.8c0,.11,0,.28,0,.5s0,.4,0,.51h-19.1a8.51,8.51,0,0,0,2.85,5.71,9.71,9.71,0,0,0,10.51,1.12,7.19,7.19,0,0,0,2.87-2.78l1.86,1.09a9.31,9.31,0,0,1-3.71,3.48A11.43,11.43,0,0,1,1221,1063a10.85,10.85,0,0,1-8-3.1,10.68,10.68,0,0,1-3.12-7.91,10.83,10.83,0,0,1,3.06-7.86A10.48,10.48,0,0,1,1220.85,1040.94Zm0,2a8.45,8.45,0,0,0-6,2.23,8.74,8.74,0,0,0-2.74,5.78h17a8.69,8.69,0,0,0-2.68-5.89A8,8,0,0,0,1220.85,1043Z"/><path class="cls-2" d="M1254.78,1033h2.11v29.5h-2.11v-4.89a9.75,9.75,0,0,1-3.69,3.92,10.16,10.16,0,0,1-5.37,1.44,10.88,10.88,0,0,1-10.92-11,10.86,10.86,0,0,1,10.92-11,10.16,10.16,0,0,1,5.37,1.44,9.75,9.75,0,0,1,3.69,3.92Zm-15.28,25.33a9.12,9.12,0,1,0-2.59-6.37A8.6,8.6,0,0,0,1239.5,1058.31Z"/><path class="cls-2" d="M1020.07,1114.27l-7.11-12.1h-9.29v12.1h-2.23v-29.51h11.63a8.78,8.78,0,0,1,8.73,8.72,8.31,8.31,0,0,1-1.84,5.32,8.63,8.63,0,0,1-4.65,3.07l7.33,12.4Zm-16.4-27.4v13.19h9.4a6.24,6.24,0,0,0,4.6-1.92,6.7,6.7,0,0,0,0-9.33,6.18,6.18,0,0,0-4.6-1.94Z"/><path class="cls-2" d="M1035.29,1092.73a9.53,9.53,0,0,1,7.52,3.28,11.44,11.44,0,0,1,2.89,7.8c0,.11,0,.28,0,.51s0,.39,0,.5h-19.1a8.51,8.51,0,0,0,2.85,5.72,9.68,9.68,0,0,0,10.51,1.11,7.19,7.19,0,0,0,2.87-2.78l1.86,1.1a9.35,9.35,0,0,1-3.71,3.47,11.43,11.43,0,0,1-5.48,1.29,10.81,10.81,0,0,1-8-3.1,10.65,10.65,0,0,1-3.12-7.9,10.8,10.8,0,0,1,3.06-7.86A10.44,10.44,0,0,1,1035.29,1092.73Zm0,2a8.45,8.45,0,0,0-6,2.23,8.77,8.77,0,0,0-2.74,5.78h17a8.69,8.69,0,0,0-2.68-5.88A8,8,0,0,0,1035.29,1094.75Z"/><path class="cls-2" d="M1060.28,1092.73a7.9,7.9,0,0,1,6,2.29,8.5,8.5,0,0,1,2.21,6.14v13.11h-2.15v-13.11a6.56,6.56,0,0,0-1.62-4.68,5.94,5.94,0,0,0-4.57-1.73,7.07,7.07,0,0,0-5.32,2.15q-2.05,2.14-2.06,6.24v11.13h-2.11v-21.08h2.11v4A7.83,7.83,0,0,1,1060.28,1092.73Z"/><path class="cls-2" d="M1083.89,1092.73a9.56,9.56,0,0,1,7.53,3.28,11.48,11.48,0,0,1,2.88,7.8c0,.11,0,.28,0,.51s0,.39,0,.5h-19.09a8.55,8.55,0,0,0,2.84,5.72,9.69,9.69,0,0,0,10.52,1.11,7.16,7.16,0,0,0,2.86-2.78l1.86,1.1a9.28,9.28,0,0,1-3.71,3.47,11.4,11.4,0,0,1-5.48,1.29,10.82,10.82,0,0,1-8-3.1,10.65,10.65,0,0,1-3.12-7.9,10.8,10.8,0,0,1,3.06-7.86A10.47,10.47,0,0,1,1083.89,1092.73Zm0,2a8.43,8.43,0,0,0-6,2.23,8.68,8.68,0,0,0-2.74,5.78h16.94a8.64,8.64,0,0,0-2.68-5.88A7.94,7.94,0,0,0,1083.89,1094.75Z"/><path class="cls-2" d="M1124,1093.19h2.08l-6.51,21.08h-2.32l-5.91-18.11-5.92,18.11h-2.32l-6.54-21.08h2.16l5.68,18.34,5.9-18.34h2.25l5.86,18.19Z"/><path class="cls-2" d="M1148.56,1093.19h2.15v21.08h-2.15v-4.77a10,10,0,0,1-3.71,3.84,10.35,10.35,0,0,1-5.36,1.39,11,11,0,0,1,0-22,10.35,10.35,0,0,1,5.36,1.39,9.9,9.9,0,0,1,3.71,3.83Zm-15.24,16.9a9,9,0,0,0,12.66,0,9.14,9.14,0,0,0,0-12.73,9,9,0,0,0-12.66,0,9.09,9.09,0,0,0,0,12.73Z"/><path class="cls-2" d="M1168.37,1092.73a10.53,10.53,0,0,1,7.73,3.18,11.18,11.18,0,0,1,0,15.64,10.53,10.53,0,0,1-7.73,3.18,10.28,10.28,0,0,1-5.38-1.43,9.94,9.94,0,0,1-3.69-3.92v4.89h-2.1v-29.51h2.1v13.32a9.81,9.81,0,0,1,3.69-3.92A10.19,10.19,0,0,1,1168.37,1092.73Zm-6.47,17.36a9,9,0,0,0,12.69,0,9.12,9.12,0,0,0,0-12.73,9,9,0,0,0-12.69,0,9.09,9.09,0,0,0,0,12.73Z"/><path class="cls-2" d="M1184.39,1114.27v-30.78h2.1v30.78Z"/><path class="cls-2" d="M1202.47,1092.73A9.53,9.53,0,0,1,1210,1096a11.44,11.44,0,0,1,2.89,7.8c0,.11,0,.28,0,.51s0,.39,0,.5h-19.1a8.6,8.6,0,0,0,2.85,5.72,9.69,9.69,0,0,0,10.52,1.11,7.16,7.16,0,0,0,2.86-2.78l1.86,1.1a9.28,9.28,0,0,1-3.71,3.47,11.4,11.4,0,0,1-5.48,1.29,10.82,10.82,0,0,1-8-3.1,10.65,10.65,0,0,1-3.12-7.9,10.8,10.8,0,0,1,3.06-7.86A10.47,10.47,0,0,1,1202.47,1092.73Zm0,2a8.47,8.47,0,0,0-6,2.23,8.77,8.77,0,0,0-2.74,5.78h17a8.64,8.64,0,0,0-2.68-5.88A7.94,7.94,0,0,0,1202.47,1094.75Z"/><path class="cls-2" d="M1256.18,1084.76v29.51h-2.24v-26.22L1243,1106.17h-.38L1231.72,1088v26.23h-2.23v-29.51h2.81l10.53,17.48,10.53-17.48Z"/><path class="cls-2" d="M1281.64,1093.19h2.14v21.08h-2.14v-4.77a10,10,0,0,1-3.71,3.84,10.35,10.35,0,0,1-5.36,1.39,11,11,0,0,1,0-22,10.35,10.35,0,0,1,5.36,1.39,9.9,9.9,0,0,1,3.71,3.83Zm-15.24,16.9a9,9,0,0,0,12.66,0,9.14,9.14,0,0,0,0-12.73,9,9,0,0,0-12.66,0,9.09,9.09,0,0,0,0,12.73Z"/><path class="cls-2" d="M1301.07,1095.25h-6.28V1109a4.08,4.08,0,0,0,.67,2.62,2.83,2.83,0,0,0,2.07.9,20.14,20.14,0,0,0,3.54-.1v1.9q-4.26.63-6.35-.59c-1.39-.82-2.08-2.39-2.08-4.73v-13.7H1288v-2.06h4.64v-5.27l2.15-.63v5.9h6.28Z"/><path class="cls-2" d="M1314.35,1092.73a9.53,9.53,0,0,1,7.52,3.28,11.44,11.44,0,0,1,2.89,7.8c0,.11,0,.28,0,.51s0,.39,0,.5h-19.1a8.51,8.51,0,0,0,2.85,5.72,9.68,9.68,0,0,0,10.51,1.11,7.19,7.19,0,0,0,2.87-2.78l1.85,1.1a9.22,9.22,0,0,1-3.71,3.47,11.36,11.36,0,0,1-5.47,1.29,10.81,10.81,0,0,1-8-3.1,10.65,10.65,0,0,1-3.12-7.9,10.83,10.83,0,0,1,3-7.86A10.48,10.48,0,0,1,1314.35,1092.73Zm0,2a8.45,8.45,0,0,0-6,2.23,8.77,8.77,0,0,0-2.74,5.78h17a8.69,8.69,0,0,0-2.68-5.88A8,8,0,0,0,1314.35,1094.75Z"/><path class="cls-2" d="M1331.8,1097.32q1.89-4.42,7-4.43v2a7,7,0,0,0-5,1.92q-2,1.92-2,5.71v11.72h-2.11v-21.08h2.11Z"/><path class="cls-2" d="M1345.33,1087.6a1.67,1.67,0,0,1-2.36,0,1.58,1.58,0,0,1-.51-1.2,1.56,1.56,0,0,1,.51-1.16,1.69,1.69,0,0,1,2.36,0,1.56,1.56,0,0,1,.51,1.16A1.58,1.58,0,0,1,1345.33,1087.6Zm-2.23,26.67v-21.08h2.1v21.08Z"/><path class="cls-2" d="M1370.24,1093.19h2.15v21.08h-2.15v-4.77a9.93,9.93,0,0,1-3.71,3.84,10.31,10.31,0,0,1-5.35,1.39,11,11,0,0,1,0-22,10.31,10.31,0,0,1,5.35,1.39,9.83,9.83,0,0,1,3.71,3.83Zm-15.24,16.9a8.59,8.59,0,0,0,6.35,2.62,8.49,8.49,0,0,0,6.32-2.62,9.17,9.17,0,0,0,0-12.73,8.52,8.52,0,0,0-6.32-2.61,8.62,8.62,0,0,0-6.35,2.61,9.12,9.12,0,0,0,0,12.73Z"/><path class="cls-2" d="M1378.88,1114.27v-30.78H1381v30.78Z"/><image width="4279" height="4292" transform="translate(121.64) scale(0.29)" xlink:href="./product.png"/><rect class="cls-1" x="34.47" y="992.4" width="431.55" height="191.64" rx="54.33"/><rect class="cls-1" y="488.29" width="387.82" height="199.81" rx="43.1"/><rect class="cls-1" x="241.17" y="77.6" width="271.71" height="160.51" rx="32.34"/><rect class="cls-1" x="1070.17" y="572" width="407.45" height="171.52" rx="40.93"/><rect class="cls-1" x="1026.18" y="178.33" width="517.47" height="162.28" rx="44.87"/><text class="cls-3" transform="matrix(-0.99, 0.17, 0.17, 0.99, 472.24, 413.78)">_</text><text class="cls-3" transform="matrix(-0.98, 0.19, 0.19, 0.98, 467.92, 414.53)"> </text><text class="cls-3" transform="matrix(-0.98, 0.2, 0.2, 0.98, 466.1, 414.88)"> </text><text class="cls-3" transform="matrix(-0.98, 0.22, 0.22, 0.98, 464.28, 415.24)">_</text><text class="cls-3" transform="matrix(-0.97, 0.24, 0.24, 0.97, 460.02, 416.21)"> </text><text class="cls-3" transform="matrix(-0.97, 0.25, 0.25, 0.97, 458.21, 416.65)"> </text><text class="cls-3" transform="matrix(-0.97, 0.26, 0.26, 0.97, 456.4, 417.09)">_</text><text class="cls-3" transform="matrix(-0.96, 0.28, 0.28, 0.96, 452.15, 418.25)"> </text><text class="cls-3" transform="matrix(-0.96, 0.29, 0.29, 0.96, 450.38, 418.77)"> </text><text class="cls-3" transform="matrix(-0.95, 0.3, 0.3, 0.95, 448.61, 419.28)">_</text><text class="cls-3" transform="matrix(-0.95, 0.32, 0.32, 0.95, 444.43, 420.61)"> </text><text class="cls-3" transform="matrix(-0.95, 0.33, 0.33, 0.95, 442.65, 421.21)"> </text><text class="cls-3" transform="matrix(-0.94, 0.34, 0.34, 0.94, 440.92, 421.79)">_</text><text class="cls-3" transform="matrix(-0.94, 0.35, 0.35, 0.94, 436.78, 423.3)"> </text><text class="cls-3" transform="matrix(-0.93, 0.36, 0.36, 0.93, 435.05, 423.95)"> </text><text class="cls-3" transform="matrix(-0.93, 0.38, 0.38, 0.93, 433.32, 424.62)">_</text><text class="cls-3" transform="matrix(-0.92, 0.39, 0.39, 0.92, 429.26, 426.28)"> </text><text class="cls-3" transform="matrix(-0.92, 0.4, 0.4, 0.92, 427.55, 427.01)"> </text><text class="cls-3" transform="matrix(-0.91, 0.41, 0.41, 0.91, 425.87, 427.74)">_</text><text class="cls-3" transform="matrix(-0.9, 0.43, 0.43, 0.9, 421.87, 429.57)"> </text><text class="cls-3" transform="matrix(-0.9, 0.44, 0.44, 0.9, 420.17, 430.37)"> </text><text class="cls-3" transform="matrix(-0.89, 0.45, 0.45, 0.89, 418.51, 431.17)">_</text><text class="cls-3" transform="matrix(-0.89, 0.46, 0.46, 0.89, 414.59, 433.16)"> </text><text class="cls-3" transform="matrix(-0.88, 0.47, 0.47, 0.88, 412.94, 434.02)"> </text><text class="cls-3" transform="matrix(-0.87, 0.49, 0.49, 0.87, 411.33, 434.88)">_</text><text class="cls-3" transform="matrix(-0.87, 0.5, 0.5, 0.87, 407.47, 437.04)"> </text><text class="cls-3" transform="matrix(-0.86, 0.51, 0.51, 0.86, 405.88, 437.96)"> </text><text class="cls-3" transform="matrix(-0.85, 0.52, 0.52, 0.85, 404.29, 438.88)">_</text><text class="cls-3" transform="matrix(-0.84, 0.54, 0.54, 0.84, 400.55, 441.19)"> </text><text class="cls-3" transform="matrix(-0.84, 0.54, 0.54, 0.84, 398.96, 442.19)"> </text><text class="cls-3" transform="matrix(-0.83, 0.56, 0.56, 0.83, 397.41, 443.18)">_</text><text class="cls-3" transform="matrix(-0.82, 0.57, 0.57, 0.82, 393.77, 445.63)"> </text><text class="cls-3" transform="matrix(-0.82, 0.58, 0.58, 0.82, 392.25, 446.69)"> </text><text class="cls-3" transform="matrix(-0.81, 0.59, 0.59, 0.81, 390.73, 447.75)">_</text><text class="cls-3" transform="matrix(-0.8, 0.6, 0.6, 0.8, 387.18, 450.35)"> </text><text class="cls-3" transform="matrix(-0.79, 0.61, 0.61, 0.79, 385.71, 451.47)"> </text><text class="cls-3" transform="matrix(-0.78, 0.62, 0.62, 0.78, 384.23, 452.6)">_</text><text class="cls-3" transform="matrix(-0.77, 0.64, 0.64, 0.77, 380.81, 455.33)"> </text><text class="cls-3" transform="matrix(-0.77, 0.64, 0.64, 0.77, 379.37, 456.53)"> </text><text class="cls-3" transform="matrix(-0.76, 0.66, 0.66, 0.76, 377.96, 457.69)">_</text><text class="cls-3" transform="matrix(-0.74, 0.67, 0.67, 0.74, 374.64, 460.59)"> </text><text class="cls-3" transform="matrix(-0.74, 0.67, 0.67, 0.74, 373.25, 461.83)"> </text><text class="cls-3" transform="matrix(-0.73, 0.69, 0.69, 0.73, 371.88, 463.07)">_</text><text class="cls-3" transform="matrix(-0.72, 0.7, 0.7, 0.72, 368.72, 466.07)"> </text><text class="cls-3" transform="matrix(-0.71, 0.7, 0.7, 0.71, 367.37, 467.39)"> </text><text class="cls-3" transform="matrix(-0.7, 0.72, 0.72, 0.7, 366.06, 468.67)">_</text><text class="cls-3" transform="matrix(-0.69, 0.73, 0.73, 0.69, 363.01, 471.82)"> </text><text class="cls-3" transform="matrix(-0.68, 0.73, 0.73, 0.68, 361.72, 473.17)"> </text><text class="cls-3" transform="matrix(-0.67, 0.74, 0.74, 0.67, 360.46, 474.53)">_</text><text class="cls-3" transform="matrix(-0.66, 0.75, 0.75, 0.66, 357.53, 477.8)"> </text><text class="cls-3" transform="matrix(-0.65, 0.76, 0.76, 0.65, 356.32, 479.2)"> </text><text class="cls-3" transform="matrix(-0.64, 0.77, 0.77, 0.64, 355.09, 480.61)">_</text><text class="cls-3" transform="matrix(-0.63, 0.78, 0.78, 0.63, 352.32, 483.99)"> </text><text class="cls-3" transform="matrix(-0.62, 0.79, 0.79, 0.62, 351.15, 485.44)"> </text><text class="cls-3" transform="matrix(-0.61, 0.8, 0.8, 0.61, 350, 486.89)">_</text><text class="cls-3" transform="matrix(-0.59, 0.81, 0.81, 0.59, 347.36, 490.38)"> </text><text class="cls-3" transform="matrix(-0.59, 0.81, 0.81, 0.59, 346.25, 491.89)"> </text><text class="cls-3" transform="matrix(-0.57, 0.82, 0.82, 0.57, 345.15, 493.39)">_</text><text class="cls-3" transform="matrix(-0.56, 0.83, 0.83, 0.56, 342.64, 496.99)"> </text><text class="cls-3" transform="matrix(-0.55, 0.83, 0.83, 0.55, 341.6, 498.52)"> </text><text class="cls-3" transform="matrix(-0.54, 0.84, 0.84, 0.54, 340.56, 500.07)">_</text><text class="cls-3" transform="matrix(-0.53, 0.85, 0.85, 0.53, 338.2, 503.76)"> </text><text class="cls-3" transform="matrix(-0.52, 0.85, 0.85, 0.52, 337.23, 505.32)"> </text><polyline class="cls-4" points="468.64 410.5 478.17 414.07 470.11 419.16"/><text class="cls-5" transform="matrix(-0.72, 0.69, -0.69, -0.72, 574.31, 1111.93)">_</text><text class="cls-5" transform="translate(571.26 1114.81) rotate(137.56)"> </text><text class="cls-5" transform="matrix(-0.75, 0.67, -0.67, -0.75, 569.95, 1116.01)"> </text><text class="cls-5" transform="translate(568.64 1117.2) rotate(139.26)">_</text><text class="cls-5" transform="matrix(-0.77, 0.64, -0.64, -0.77, 565.47, 1119.92)"> </text><text class="cls-5" transform="matrix(-0.78, 0.63, -0.63, -0.78, 564.1, 1121.06)"> </text><text class="cls-5" transform="translate(562.72 1122.19) rotate(141.8)">_</text><text class="cls-5" transform="translate(559.44 1124.76) rotate(142.73)"> </text><text class="cls-5" transform="translate(558.01 1125.85) rotate(143.28)"> </text><text class="cls-5" transform="translate(556.62 1126.9) rotate(144.19)">_</text><text class="cls-5" transform="matrix(-0.82, 0.57, -0.57, -0.82, 553.2, 1129.36)"> </text><text class="cls-5" transform="matrix(-0.83, 0.56, -0.56, -0.83, 551.74, 1130.37)"> </text><text class="cls-5" transform="matrix(-0.83, 0.55, -0.55, -0.83, 550.29, 1131.38)">_</text><text class="cls-5" transform="matrix(-0.84, 0.54, -0.54, -0.84, 546.79, 1133.68)"> </text><text class="cls-5" transform="matrix(-0.85, 0.53, -0.53, -0.85, 545.3, 1134.63)"> </text><text class="cls-5" transform="matrix(-0.86, 0.52, -0.52, -0.86, 543.8, 1135.58)">_</text><text class="cls-5" transform="matrix(-0.86, 0.5, -0.5, -0.86, 540.21, 1137.74)"> </text><text class="cls-5" transform="translate(538.66 1138.65) rotate(150.25)"> </text><text class="cls-5" transform="translate(537.14 1139.53) rotate(151.13)">_</text><text class="cls-5" transform="translate(533.46 1141.55) rotate(152.02)"> </text><text class="cls-5" transform="translate(531.89 1142.38) rotate(152.55)"> </text><text class="cls-5" transform="translate(530.33 1143.2) rotate(153.44)">_</text><text class="cls-5" transform="matrix(-0.9, 0.43, -0.43, -0.9, 526.57, 1145.07)"> </text><text class="cls-5" transform="translate(524.97 1145.84) rotate(154.87)"> </text><text class="cls-5" transform="translate(523.37 1146.6) rotate(155.77)">_</text><text class="cls-5" transform="matrix(-0.92, 0.4, -0.4, -0.92, 519.56, 1148.3)"> </text><text class="cls-5" transform="translate(517.92 1149.01) rotate(157.2)"> </text><text class="cls-5" transform="matrix(-0.93, 0.37, -0.37, -0.93, 516.28, 1149.71)">_</text><text class="cls-5" transform="translate(512.4 1151.26) rotate(159.01)"> </text><text class="cls-5" transform="matrix(-0.94, 0.35, -0.35, -0.94, 510.73, 1151.9)"> </text><text class="cls-5" transform="matrix(-0.94, 0.33, -0.33, -0.94, 509.09, 1152.52)">_</text><text class="cls-5" transform="translate(505.13 1153.92) rotate(161.37)"> </text><text class="cls-5" transform="matrix(-0.95, 0.31, -0.31, -0.95, 503.45, 1154.48)"> </text><text class="cls-5" transform="translate(501.77 1155.04) rotate(162.83)">_</text><text class="cls-5" transform="translate(497.75 1156.28) rotate(163.75)"> </text><text class="cls-5" transform="translate(496.05 1156.77) rotate(164.29)"> </text><text class="cls-5" transform="matrix(-0.97, 0.26, -0.26, -0.97, 494.37, 1157.25)">_</text><text class="cls-5" transform="translate(490.3 1158.32) rotate(166.13)"> </text><text class="cls-5" transform="translate(488.59 1158.74) rotate(166.67)"> </text><text class="cls-5" transform="matrix(-0.98, 0.21, -0.21, -0.98, 486.86, 1159.16)">_</text><text class="cls-5" transform="translate(482.75 1160.06) rotate(168.52)"> </text><text class="cls-5" transform="translate(481.04 1160.4) rotate(169.06)"> </text><text class="cls-5" transform="matrix(-0.98, 0.17, -0.17, -0.98, 479.3, 1160.75)">_</text><text class="cls-5" transform="matrix(-0.99, 0.16, -0.16, -0.99, 475.16, 1161.47)"> </text><text class="cls-5" transform="translate(473.39 1161.75) rotate(171.45)"> </text><text class="cls-5" transform="translate(471.65 1162.03) rotate(172.36)">_</text><text class="cls-5" transform="matrix(-0.99, 0.12, -0.12, -0.99, 467.5, 1162.57)"> </text><text class="cls-5" transform="translate(465.73 1162.78) rotate(173.82)"> </text><text class="cls-5" transform="translate(463.97 1162.98) rotate(174.73)">_</text><text class="cls-5" transform="translate(459.79 1163.36) rotate(175.63)"> </text><text class="cls-5" transform="translate(458.03 1163.49) rotate(176.17)"> </text><text class="cls-5" transform="translate(456.28 1163.62) rotate(177.06)">_</text><text class="cls-5" transform="translate(452.07 1163.83) rotate(177.96)"> </text><text class="cls-5" transform="translate(450.29 1163.89) rotate(178.49)"> </text><text class="cls-5" transform="translate(448.53 1163.95) rotate(179.38)">_</text><text class="cls-5" transform="matrix(-1, 0, 0, -1, 444.34, 1163.98)"> </text><text class="cls-5" transform="translate(442.58 1163.97) rotate(-179.23)"> </text><text class="cls-5" transform="translate(440.81 1163.96) rotate(-178.36)">_</text><text class="cls-5" transform="translate(436.62 1163.83) rotate(-177.49)"> </text><text class="cls-5" transform="translate(434.83 1163.75) rotate(-176.98)"> </text><text class="cls-5" transform="translate(433.07 1163.67) rotate(-176.13)">_</text><text class="cls-5" transform="matrix(-1, -0.08, 0.08, -1, 428.88, 1163.38)"> </text><text class="cls-5" transform="translate(427.1 1163.23) rotate(-174.78)"> </text><polyline class="cls-6" points="574.75 1116.53 577.45 1107.19 568.95 1110.46"/><text class="cls-7" transform="matrix(-0.76, -0.65, -0.65, 0.76, 631.84, 227.48)">_</text><text class="cls-7" transform="matrix(-0.77, -0.64, -0.64, 0.77, 628.64, 224.76)"> </text><text class="cls-7" transform="matrix(-0.78, -0.63, -0.63, 0.78, 627.29, 223.64)"> </text><text class="cls-7" transform="matrix(-0.79, -0.61, -0.61, 0.79, 625.91, 222.52)">_</text><text class="cls-7" transform="matrix(-0.8, -0.6, -0.6, 0.8, 622.58, 219.95)"> </text><text class="cls-7" transform="matrix(-0.81, -0.59, -0.59, 0.81, 621.17, 218.9)"> </text><text class="cls-7" transform="matrix(-0.82, -0.58, -0.58, 0.82, 619.76, 217.85)">_</text><text class="cls-7" transform="matrix(-0.83, -0.56, -0.56, 0.83, 616.31, 215.42)"> </text><text class="cls-7" transform="matrix(-0.83, -0.56, -0.56, 0.83, 614.87, 214.43)"> </text><text class="cls-7" transform="matrix(-0.84, -0.54, -0.54, 0.84, 613.4, 213.43)">_</text><text class="cls-7" transform="matrix(-0.85, -0.53, -0.53, 0.85, 609.86, 211.16)"> </text><text class="cls-7" transform="matrix(-0.85, -0.52, -0.52, 0.85, 608.36, 210.22)"> </text><text class="cls-7" transform="matrix(-0.86, -0.51, -0.51, 0.86, 606.85, 209.28)">_</text><text class="cls-7" transform="matrix(-0.87, -0.5, -0.5, 0.87, 603.25, 207.17)"> </text><text class="cls-7" transform="matrix(-0.87, -0.49, -0.49, 0.87, 601.7, 206.29)"> </text><text class="cls-7" transform="matrix(-0.88, -0.47, -0.47, 0.88, 600.16, 205.41)">_</text><text class="cls-7" transform="matrix(-0.89, -0.46, -0.46, 0.89, 596.46, 203.44)"> </text><text class="cls-7" transform="matrix(-0.89, -0.45, -0.45, 0.89, 594.88, 202.61)"> </text><text class="cls-7" transform="matrix(-0.9, -0.44, -0.44, 0.9, 593.32, 201.81)">_</text><text class="cls-7" transform="matrix(-0.91, -0.42, -0.42, 0.91, 589.53, 199.98)"> </text><text class="cls-7" transform="matrix(-0.91, -0.42, -0.42, 0.91, 587.93, 199.23)"> </text><text class="cls-7" transform="matrix(-0.92, -0.4, -0.4, 0.92, 586.32, 198.48)">_</text><text class="cls-7" transform="matrix(-0.92, -0.39, -0.39, 0.92, 582.48, 196.81)"> </text><text class="cls-7" transform="matrix(-0.93, -0.38, -0.38, 0.93, 580.85, 196.13)"> </text><text class="cls-7" transform="matrix(-0.93, -0.36, -0.36, 0.93, 579.2, 195.44)">_</text><text class="cls-7" transform="matrix(-0.94, -0.35, -0.35, 0.94, 575.3, 193.93)"> </text><text class="cls-7" transform="matrix(-0.94, -0.34, -0.34, 0.94, 573.63, 193.3)"> </text><text class="cls-7" transform="matrix(-0.95, -0.33, -0.33, 0.95, 571.96, 192.69)">_</text><text class="cls-7" transform="matrix(-0.95, -0.31, -0.31, 0.95, 568, 191.34)"> </text><text class="cls-7" transform="matrix(-0.95, -0.3, -0.3, 0.95, 566.32, 190.79)"> </text><text class="cls-7" transform="matrix(-0.96, -0.29, -0.29, 0.96, 564.63, 190.24)">_</text><text class="cls-7" transform="matrix(-0.96, -0.27, -0.27, 0.96, 560.62, 189.06)"> </text><text class="cls-7" transform="matrix(-0.97, -0.26, -0.26, 0.97, 558.91, 188.58)"> </text><text class="cls-7" transform="matrix(-0.97, -0.25, -0.25, 0.97, 557.2, 188.1)">_</text><text class="cls-7" transform="matrix(-0.97, -0.23, -0.23, 0.97, 553.13, 187.07)"> </text><text class="cls-7" transform="matrix(-0.98, -0.22, -0.22, 0.98, 551.41, 186.67)"> </text><text class="cls-7" transform="matrix(-0.98, -0.21, -0.21, 0.98, 549.7, 186.27)">_</text><text class="cls-7" transform="matrix(-0.98, -0.19, -0.19, 0.98, 545.59, 185.41)"> </text><text class="cls-7" transform="matrix(-0.98, -0.18, -0.18, 0.98, 543.83, 185.07)"> </text><text class="cls-7" transform="matrix(-0.99, -0.17, -0.17, 0.99, 542.1, 184.74)">_</text><text class="cls-7" transform="matrix(-0.99, -0.15, -0.15, 0.99, 537.97, 184.06)"> </text><text class="cls-7" transform="matrix(-0.99, -0.14, -0.14, 0.99, 536.2, 183.8)"> </text><text class="cls-7" transform="matrix(-0.99, -0.12, -0.12, 0.99, 534.45, 183.54)">_</text><text class="cls-7" transform="matrix(-0.99, -0.11, -0.11, 0.99, 530.3, 183.03)"> </text><text class="cls-7" transform="matrix(-1, -0.1, -0.1, 1, 528.54, 182.84)"> </text><text class="cls-7" transform="matrix(-1, -0.08, -0.08, 1, 526.78, 182.65)">_</text><text class="cls-7" transform="matrix(-1, -0.07, -0.07, 1, 522.6, 182.32)"> </text><text class="cls-7" transform="matrix(-1, -0.06, -0.06, 1, 520.81, 182.2)"> </text><text class="cls-7" transform="matrix(-1, -0.04, -0.04, 1, 519.07, 182.09)">_</text><text class="cls-7" transform="matrix(-1, -0.03, -0.03, 1, 514.86, 181.92)"> </text><text class="cls-7" transform="matrix(-1, -0.02, -0.02, 1, 513.09, 181.88)"> </text><text class="cls-7" transform="matrix(-1, 0, 0, 1, 511.33, 181.84)">_</text><text class="cls-7" transform="matrix(-1, 0.01, 0.01, 1, 507.14, 181.85)"> </text><text class="cls-7" transform="matrix(-1, 0.02, 0.02, 1, 505.36, 181.87)"> </text><text class="cls-7" transform="matrix(-1, 0.04, 0.04, 1, 503.58, 181.9)">_</text><text class="cls-7" transform="matrix(-1, 0.05, 0.05, 1, 499.39, 182.08)"> </text><text class="cls-7" transform="matrix(-1, 0.06, 0.06, 1, 497.63, 182.18)"> </text><text class="cls-7" transform="matrix(-1, 0.08, 0.08, 1, 495.85, 182.28)">_</text><text class="cls-7" transform="matrix(-1, 0.09, 0.09, 1, 491.66, 182.62)"> </text><text class="cls-7" transform="matrix(-0.99, 0.1, 0.1, 0.99, 489.89, 182.79)"> </text><text class="cls-7" transform="matrix(-0.99, 0.12, 0.12, 0.99, 488.15, 182.96)">_</text><text class="cls-7" transform="matrix(-0.99, 0.13, 0.13, 0.99, 483.97, 183.47)"> </text><text class="cls-7" transform="matrix(-0.99, 0.14, 0.14, 0.99, 482.23, 183.7)"> </text><polyline class="cls-6" points="632.73 223.43 635.86 232.64 627.22 229.75"/><text class="cls-8" transform="matrix(1, 0.02, -0.02, 1, 979.76, 134.12)">_</text><text class="cls-8" transform="translate(983.65 134.19) rotate(2.14)"> </text><text class="cls-8" transform="translate(985.27 134.25) rotate(2.77)"> </text><text class="cls-8" transform="translate(986.88 134.32) rotate(3.8)">_</text><text class="cls-8" transform="translate(990.77 134.59) rotate(4.8)"> </text><text class="cls-8" transform="matrix(1, 0.09, -0.09, 1, 992.41, 134.73)"> </text><text class="cls-8" transform="translate(994.04 134.87) rotate(6.32)">_</text><text class="cls-8" transform="translate(997.88 135.31) rotate(7.25)"> </text><text class="cls-8" transform="translate(999.52 135.51) rotate(7.8)"> </text><text class="cls-8" transform="translate(1001.11 135.72) rotate(8.7)">_</text><text class="cls-8" transform="translate(1004.95 136.32) rotate(9.6)"> </text><text class="cls-8" transform="matrix(0.98, 0.18, -0.18, 0.98, 1006.57, 136.59)"> </text><text class="cls-8" transform="translate(1008.18 136.87) rotate(11.03)">_</text><text class="cls-8" transform="translate(1012 137.63) rotate(11.92)"> </text><text class="cls-8" transform="matrix(0.98, 0.22, -0.22, 0.98, 1013.58, 137.96)"> </text><text class="cls-8" transform="matrix(0.97, 0.23, -0.23, 0.97, 1015.18, 138.31)">_</text><text class="cls-8" transform="translate(1018.95 139.21) rotate(14.22)"> </text><text class="cls-8" transform="translate(1020.57 139.62) rotate(14.75)"> </text><text class="cls-8" transform="translate(1022.12 140.01) rotate(15.63)">_</text><text class="cls-8" transform="translate(1025.87 141.07) rotate(16.52)"> </text><text class="cls-8" transform="translate(1027.43 141.54) rotate(17.05)"> </text><text class="cls-8" transform="matrix(0.95, 0.31, -0.31, 0.95, 1029.01, 142.01)">_</text><text class="cls-8" transform="translate(1032.71 143.22) rotate(18.84)"> </text><text class="cls-8" transform="translate(1034.23 143.74) rotate(19.36)"> </text><text class="cls-8" transform="translate(1035.79 144.28) rotate(20.27)">_</text><text class="cls-8" transform="matrix(0.93, 0.36, -0.36, 0.93, 1039.44, 145.63)"> </text><text class="cls-8" transform="translate(1040.96 146.22) rotate(21.7)"> </text><text class="cls-8" transform="matrix(0.92, 0.38, -0.38, 0.92, 1042.48, 146.82)">_</text><text class="cls-8" transform="translate(1046.06 148.32) rotate(23.51)"> </text><text class="cls-8" transform="translate(1047.56 148.97) rotate(24.05)"> </text><text class="cls-8" transform="translate(1049.06 149.63) rotate(24.96)">_</text><text class="cls-8" transform="translate(1052.56 151.27) rotate(25.87)"> </text><text class="cls-8" transform="matrix(0.9, 0.44, -0.44, 0.9, 1054.03, 151.98)"> </text><text class="cls-8" transform="translate(1055.49 152.7) rotate(27.33)">_</text><text class="cls-8" transform="matrix(0.88, 0.47, -0.47, 0.88, 1058.95, 154.49)"> </text><text class="cls-8" transform="translate(1060.4 155.27) rotate(28.8)"> </text><text class="cls-8" transform="translate(1061.83 156.05) rotate(29.71)">_</text><text class="cls-8" transform="translate(1065.19 157.97) rotate(30.63)"> </text><text class="cls-8" transform="matrix(0.86, 0.52, -0.52, 0.86, 1066.62, 158.82)"> </text><text class="cls-8" transform="translate(1068.01 159.65) rotate(32.1)">_</text><text class="cls-8" transform="matrix(0.84, 0.54, -0.54, 0.84, 1071.29, 161.72)"> </text><text class="cls-8" transform="translate(1072.67 162.62) rotate(33.57)"> </text><text class="cls-8" transform="translate(1074.02 163.5) rotate(34.48)">_</text><text class="cls-8" transform="matrix(0.82, 0.58, -0.58, 0.82, 1077.22, 165.71)"> </text><text class="cls-8" transform="matrix(0.81, 0.59, -0.59, 0.81, 1078.54, 166.65)"> </text><text class="cls-8" transform="translate(1079.89 167.62) rotate(36.86)">_</text><text class="cls-8" transform="translate(1082.99 169.95) rotate(37.77)"> </text><text class="cls-8" transform="translate(1084.27 170.94) rotate(38.31)"> </text><text class="cls-8" transform="translate(1085.57 171.96) rotate(39.22)">_</text><text class="cls-8" transform="translate(1088.55 174.41) rotate(40.12)"> </text><text class="cls-8" transform="translate(1089.81 175.46) rotate(40.65)"> </text><text class="cls-8" transform="matrix(0.75, 0.66, -0.66, 0.75, 1091.05, 176.52)">_</text><text class="cls-8" transform="translate(1093.94 179.09) rotate(42.44)"> </text><text class="cls-8" transform="translate(1095.16 180.2) rotate(42.97)"> </text><text class="cls-8" transform="translate(1096.36 181.31) rotate(43.86)">_</text><text class="cls-8" transform="matrix(0.71, 0.7, -0.7, 0.71, 1099.16, 184.01)"> </text><text class="cls-8" transform="translate(1100.31 185.16) rotate(45.25)"> </text><text class="cls-8" transform="matrix(0.69, 0.72, -0.72, 0.69, 1101.48, 186.32)">_</text><text class="cls-8" transform="matrix(0.68, 0.73, -0.73, 0.68, 1104.17, 189.13)"> </text><text class="cls-8" transform="matrix(0.68, 0.74, -0.74, 0.68, 1105.29, 190.33)"> </text><text class="cls-8" transform="matrix(0.66, 0.75, -0.75, 0.66, 1106.39, 191.52)">_</text><text class="cls-8" transform="translate(1108.97 194.43) rotate(49.19)"> </text><text class="cls-8" transform="matrix(0.65, 0.76, -0.76, 0.65, 1110.03, 195.66)"> </text><polyline class="cls-9" points="981.6 130.74 973.78 135.18 981.52 138.5"/><text class="cls-10" transform="matrix(0.92, 0.39, -0.39, 0.92, 1004.43, 791.52)">_</text><text class="cls-10" transform="translate(1008.34 793.2) rotate(24.2)"> </text><text class="cls-10" transform="translate(1009.97 793.93) rotate(24.83)"> </text><text class="cls-10" transform="translate(1011.6 794.68) rotate(25.87)">_</text><text class="cls-10" transform="matrix(0.89, 0.45, -0.45, 0.89, 1015.43, 796.55)"> </text><text class="cls-10" transform="translate(1017.02 797.35) rotate(27.43)"> </text><text class="cls-10" transform="translate(1018.61 798.16) rotate(28.38)">_</text><text class="cls-10" transform="translate(1022.36 800.2) rotate(29.31)"> </text><text class="cls-10" transform="translate(1023.91 801.07) rotate(29.86)"> </text><text class="cls-10" transform="matrix(0.86, 0.51, -0.51, 0.86, 1025.47, 801.95)">_</text><text class="cls-10" transform="translate(1029.13 804.14) rotate(31.67)"> </text><text class="cls-10" transform="translate(1030.66 805.09) rotate(32.2)"> </text><text class="cls-10" transform="matrix(0.84, 0.55, -0.55, 0.84, 1032.18, 806.04)">_</text><text class="cls-10" transform="matrix(0.83, 0.56, -0.56, 0.83, 1035.73, 808.36)"> </text><text class="cls-10" transform="matrix(0.82, 0.57, -0.57, 0.82, 1037.21, 809.36)"> </text><text class="cls-10" transform="translate(1038.7 810.37) rotate(35.4)">_</text><text class="cls-10" transform="translate(1042.15 812.84) rotate(36.29)"> </text><text class="cls-10" transform="matrix(0.8, 0.6, -0.6, 0.8, 1043.61, 813.91)"> </text><text class="cls-10" transform="translate(1045.04 814.96) rotate(37.7)">_</text><text class="cls-10" transform="matrix(0.78, 0.62, -0.62, 0.78, 1048.41, 817.58)"> </text><text class="cls-10" transform="translate(1049.8 818.69) rotate(39.12)"> </text><text class="cls-10" transform="translate(1051.21 819.82) rotate(40.01)">_</text><text class="cls-10" transform="translate(1054.45 822.56) rotate(40.9)"> </text><text class="cls-10" transform="translate(1055.8 823.73) rotate(41.44)"> </text><text class="cls-10" transform="matrix(0.74, 0.67, -0.67, 0.74, 1057.16, 824.92)">_</text><text class="cls-10" transform="translate(1060.31 827.79) rotate(43.24)"> </text><text class="cls-10" transform="translate(1061.61 829.02) rotate(43.78)"> </text><text class="cls-10" transform="translate(1062.91 830.25) rotate(44.68)">_</text><text class="cls-10" transform="matrix(0.7, 0.71, -0.71, 0.7, 1065.92, 833.24)"> </text><text class="cls-10" transform="matrix(0.69, 0.72, -0.72, 0.69, 1067.18, 834.52)"> </text><text class="cls-10" transform="translate(1068.43 835.81) rotate(47.04)">_</text><text class="cls-10" transform="matrix(0.67, 0.74, -0.74, 0.67, 1071.3, 838.91)"> </text><text class="cls-10" transform="matrix(0.66, 0.75, -0.75, 0.66, 1072.51, 840.25)"> </text><text class="cls-10" transform="matrix(0.65, 0.76, -0.76, 0.65, 1073.71, 841.59)">_</text><text class="cls-10" transform="matrix(0.64, 0.77, -0.77, 0.64, 1076.47, 844.82)"> </text><text class="cls-10" transform="matrix(0.63, 0.78, -0.78, 0.63, 1077.61, 846.2)"> </text><text class="cls-10" transform="matrix(0.62, 0.79, -0.79, 0.62, 1078.76, 847.6)">_</text><text class="cls-10" transform="translate(1081.38 850.94) rotate(52.72)"> </text><text class="cls-10" transform="translate(1082.47 852.37) rotate(53.26)"> </text><text class="cls-10" transform="matrix(0.59, 0.81, -0.81, 0.59, 1083.54, 853.79)">_</text><text class="cls-10" transform="matrix(0.57, 0.82, -0.82, 0.57, 1086.03, 857.26)"> </text><text class="cls-10" transform="translate(1087.05 858.72) rotate(55.65)"> </text><text class="cls-10" transform="translate(1088.07 860.2) rotate(56.57)">_</text><text class="cls-10" transform="matrix(0.54, 0.84, -0.84, 0.54, 1090.4, 863.73)"> </text><text class="cls-10" transform="matrix(0.53, 0.85, -0.85, 0.53, 1091.36, 865.25)"> </text><text class="cls-10" transform="matrix(0.52, 0.86, -0.86, 0.52, 1092.32, 866.76)">_</text><text class="cls-10" transform="matrix(0.5, 0.86, -0.86, 0.5, 1094.5, 870.4)"> </text><text class="cls-10" transform="matrix(0.49, 0.87, -0.87, 0.49, 1095.41, 871.97)"> </text><text class="cls-10" transform="matrix(0.48, 0.88, -0.88, 0.48, 1096.31, 873.54)">_</text><text class="cls-10" transform="translate(1098.33 877.25) rotate(62.21)"> </text><text class="cls-10" transform="translate(1099.17 878.84) rotate(62.74)"> </text><text class="cls-10" transform="translate(1100 880.42) rotate(63.64)">_</text><text class="cls-10" transform="matrix(0.43, 0.9, -0.9, 0.43, 1101.89, 884.26)"> </text><text class="cls-10" transform="matrix(0.42, 0.91, -0.91, 0.42, 1102.65, 885.86)"> </text><text class="cls-10" transform="translate(1103.41 887.48) rotate(65.94)">_</text><text class="cls-10" transform="matrix(0.39, 0.92, -0.92, 0.39, 1105.14, 891.37)"> </text><text class="cls-10" transform="translate(1105.86 893.04) rotate(67.35)"> </text><text class="cls-10" transform="matrix(0.37, 0.93, -0.93, 0.37, 1106.55, 894.67)">_</text><text class="cls-10" transform="matrix(0.36, 0.93, -0.93, 0.36, 1108.12, 898.63)"> </text><text class="cls-10" transform="translate(1108.76 900.31) rotate(69.58)"> </text><text class="cls-10" transform="translate(1109.39 901.97) rotate(70.43)">_</text><text class="cls-10" transform="matrix(0.32, 0.95, -0.95, 0.32, 1110.81, 905.99)"> </text><text class="cls-10" transform="translate(1111.39 907.7) rotate(71.78)"> </text><polyline class="cls-11" points="1007.72 788.9 997.95 790.2 1004.45 796.75"/><text class="cls-12" transform="translate(1003.34 513.23) rotate(6.12)">_</text><text class="cls-12" transform="matrix(0.99, 0.13, -0.13, 0.99, 1007.57, 513.7)"> </text><text class="cls-12" transform="translate(1009.33 513.92) rotate(7.9)"> </text><text class="cls-12" transform="translate(1011.11 514.16) rotate(8.93)">_</text><text class="cls-12" transform="translate(1015.29 514.82) rotate(9.92)"> </text><text class="cls-12" transform="translate(1017.07 515.13) rotate(10.5)"> </text><text class="cls-12" transform="matrix(0.98, 0.2, -0.2, 0.98, 1018.83, 515.45)">_</text><text class="cls-12" transform="matrix(0.98, 0.21, -0.21, 0.98, 1023.01, 516.31)"> </text><text class="cls-12" transform="matrix(0.97, 0.22, -0.22, 0.97, 1024.75, 516.69)"> </text><text class="cls-12" transform="translate(1026.5 517.08) rotate(13.84)">_</text><text class="cls-12" transform="matrix(0.97, 0.25, -0.25, 0.97, 1030.64, 518.11)"> </text><text class="cls-12" transform="translate(1032.37 518.57) rotate(15.27)"> </text><text class="cls-12" transform="translate(1034.11 519.03) rotate(16.17)">_</text><text class="cls-12" transform="translate(1038.16 520.21) rotate(17.05)"> </text><text class="cls-12" transform="matrix(0.95, 0.3, -0.3, 0.95, 1039.89, 520.74)"> </text><text class="cls-12" transform="translate(1041.61 521.28) rotate(18.47)">_</text><text class="cls-12" transform="matrix(0.94, 0.33, -0.33, 0.94, 1045.63, 522.63)"> </text><text class="cls-12" transform="matrix(0.94, 0.34, -0.34, 0.94, 1047.31, 523.22)"> </text><text class="cls-12" transform="matrix(0.94, 0.35, -0.35, 0.94, 1049, 523.82)">_</text><text class="cls-12" transform="translate(1052.99 525.35) rotate(21.66)"> </text><text class="cls-12" transform="translate(1054.65 526) rotate(22.19)"> </text><text class="cls-12" transform="translate(1056.32 526.68) rotate(23.08)">_</text><text class="cls-12" transform="translate(1060.22 528.35) rotate(23.97)"> </text><text class="cls-12" transform="translate(1061.86 529.07) rotate(24.5)"> </text><text class="cls-12" transform="matrix(0.9, 0.43, -0.43, 0.9, 1063.48, 529.8)">_</text><text class="cls-12" transform="translate(1067.33 531.64) rotate(26.3)"> </text><text class="cls-12" transform="translate(1068.95 532.44) rotate(26.84)"> </text><text class="cls-12" transform="matrix(0.89, 0.47, -0.47, 0.89, 1070.56, 533.25)">_</text><text class="cls-12" transform="matrix(0.88, 0.48, -0.48, 0.88, 1074.31, 535.23)"> </text><text class="cls-12" transform="translate(1075.88 536.09) rotate(29.19)"> </text><text class="cls-12" transform="matrix(0.87, 0.5, -0.5, 0.87, 1077.45, 536.95)">_</text><text class="cls-12" transform="translate(1081.11 539.09) rotate(31.01)"> </text><text class="cls-12" transform="translate(1082.65 540.01) rotate(31.56)"> </text><text class="cls-12" transform="matrix(0.84, 0.54, -0.54, 0.84, 1084.2, 540.95)">_</text><text class="cls-12" transform="matrix(0.83, 0.55, -0.55, 0.83, 1087.77, 543.24)"> </text><text class="cls-12" transform="translate(1089.27 544.23) rotate(33.94)"> </text><text class="cls-12" transform="translate(1090.75 545.21) rotate(34.85)">_</text><text class="cls-12" transform="matrix(0.81, 0.58, -0.58, 0.81, 1094.26, 547.66)"> </text><text class="cls-12" transform="translate(1095.71 548.71) rotate(36.33)"> </text><text class="cls-12" transform="translate(1097.15 549.75) rotate(37.24)">_</text><text class="cls-12" transform="translate(1100.52 552.33) rotate(38.16)"> </text><text class="cls-12" transform="translate(1101.94 553.45) rotate(38.71)"> </text><text class="cls-12" transform="matrix(0.77, 0.64, -0.64, 0.77, 1103.35, 554.57)">_</text><text class="cls-12" transform="matrix(0.76, 0.65, -0.65, 0.76, 1106.6, 557.27)"> </text><text class="cls-12" transform="matrix(0.75, 0.66, -0.66, 0.75, 1107.97, 558.44)"> </text><text class="cls-12" transform="matrix(0.74, 0.67, -0.67, 0.74, 1109.32, 559.61)">_</text><text class="cls-12" transform="translate(1112.47 562.46) rotate(42.92)"> </text><text class="cls-12" transform="matrix(0.73, 0.69, -0.69, 0.73, 1113.8, 563.69)"> </text><text class="cls-12" transform="matrix(0.71, 0.7, -0.7, 0.71, 1115.1, 564.9)">_</text><text class="cls-12" transform="matrix(0.7, 0.71, -0.71, 0.7, 1118.14, 567.89)"> </text><text class="cls-12" transform="translate(1119.4 569.17) rotate(45.81)"> </text><text class="cls-12" transform="matrix(0.69, 0.73, -0.73, 0.69, 1120.65, 570.44)">_</text><text class="cls-12" transform="translate(1123.57 573.56) rotate(47.6)"> </text><text class="cls-12" transform="translate(1124.77 574.87) rotate(48.12)"> </text><text class="cls-12" transform="matrix(0.66, 0.75, -0.75, 0.66, 1125.98, 576.2)">_</text><text class="cls-12" transform="translate(1128.76 579.41) rotate(49.89)"> </text><text class="cls-12" transform="translate(1129.91 580.78) rotate(50.4)"> </text><text class="cls-12" transform="matrix(0.63, 0.78, -0.78, 0.63, 1131.06, 582.16)">_</text><text class="cls-12" transform="translate(1133.72 585.49) rotate(52.14)"> </text><text class="cls-12" transform="translate(1134.83 586.91) rotate(52.65)"> </text><text class="cls-12" transform="matrix(0.59, 0.8, -0.8, 0.59, 1135.91, 588.32)">_</text><text class="cls-12" transform="matrix(0.58, 0.81, -0.81, 0.58, 1138.44, 591.75)"> </text><text class="cls-12" transform="translate(1139.5 593.22) rotate(54.84)"> </text><polyline class="cls-11" points="1005.67 509.73 996.7 513.81 1004.83 518.18"/><path class="cls-13" d="M78.07,1048v-2l10.84-11.13q4.75-4.93,4.76-8.35a6,6,0,0,0-1.86-4.64,6.63,6.63,0,0,0-4.63-1.68,7.23,7.23,0,0,0-7,4.47l-1.9-1.14a9.53,9.53,0,0,1,3.65-4.07,10,10,0,0,1,5.29-1.41,9.08,9.08,0,0,1,6.17,2.27,7.83,7.83,0,0,1,2.59,6.2,9.15,9.15,0,0,1-1.46,4.89,28.5,28.5,0,0,1-4.1,5l-9.13,9.44H96.62V1048Z"/><path class="cls-13" d="M121.66,1048h-2.57l-8.53-13.17-8.5,13.17H99.44l9.83-15.18L100,1018.45h2.57l8,12.34,8-12.34h2.57l-9.26,14.35Z"/><path class="cls-13" d="M156.94,1018.45h2.24V1048h-2.24v-14.12H139.79V1048h-2.24v-29.51h2.24v13.28h17.15Z"/><path class="cls-13" d="M181.52,1026.88h2.27l-9.1,23a11.58,11.58,0,0,1-3.46,4.91,6.76,6.76,0,0,1-4.89,1.58v-2a4.92,4.92,0,0,0,3.65-1.16,9.38,9.38,0,0,0,2.63-3.77l.46-1.16-9.69-21.44h2.28l8.49,18.69Z"/><path class="cls-13" d="M205.34,1018.45h2.1V1048h-2.1v-4.89a10,10,0,0,1-3.69,3.92,10.19,10.19,0,0,1-5.38,1.43,11,11,0,0,1,0-22,10.28,10.28,0,0,1,5.38,1.43,10,10,0,0,1,3.69,3.92Zm-15.29,25.34a9,9,0,0,0,12.69,0,9.1,9.1,0,0,0,0-12.74,9,9,0,0,0-12.69,0,9.13,9.13,0,0,0,0,12.74Z"/><path class="cls-13" d="M216,1031c1.27-3,3.61-4.42,7-4.42v2a7,7,0,0,0-5,1.92,7.5,7.5,0,0,0-2,5.71V1048h-2.11v-21.08H216Z"/><path class="cls-13" d="M244.62,1026.88h2.15V1048h-2.15v-4.76a9.9,9.9,0,0,1-3.71,3.83,10.31,10.31,0,0,1-5.35,1.39,11,11,0,0,1,0-22,10.31,10.31,0,0,1,5.35,1.39,9.93,9.93,0,0,1,3.71,3.84Zm-15.24,16.91a8.62,8.62,0,0,0,6.35,2.61,8.52,8.52,0,0,0,6.32-2.61,9.18,9.18,0,0,0,0-12.74,8.52,8.52,0,0,0-6.32-2.61,8.62,8.62,0,0,0-6.35,2.61,9.13,9.13,0,0,0,0,12.74Z"/><path class="cls-13" d="M264.06,1029h-6.29v13.7a4,4,0,0,0,.68,2.61,2.83,2.83,0,0,0,2.06.91,21.44,21.44,0,0,0,3.55-.11v1.9q-4.26.63-6.35-.59t-2.09-4.72V1029H251v-2.07h4.63v-5.27l2.15-.63v5.9h6.29Z"/><path class="cls-13" d="M271.35,1021.3a1.66,1.66,0,0,1-1.18.48,1.65,1.65,0,0,1-1.18-.48,1.62,1.62,0,0,1-.51-1.21,1.53,1.53,0,0,1,.51-1.15,1.67,1.67,0,0,1,2.36,0,1.56,1.56,0,0,1,.5,1.15A1.65,1.65,0,0,1,271.35,1021.3ZM269.11,1048v-21.08h2.11V1048Z"/><path class="cls-13" d="M287.37,1048.42a10.78,10.78,0,0,1-7.87-3.18,11.11,11.11,0,0,1,0-15.64,11.27,11.27,0,0,1,15.69,0,11.11,11.11,0,0,1,0,15.64A10.73,10.73,0,0,1,287.37,1048.42Zm-6.35-4.63a9,9,0,0,0,12.67,0,9.18,9.18,0,0,0,0-12.74,9,9,0,0,0-12.67,0,9.13,9.13,0,0,0,0,12.74Z"/><path class="cls-13" d="M313.12,1026.42a7.89,7.89,0,0,1,6,2.3,8.47,8.47,0,0,1,2.21,6.13V1048h-2.15v-13.11a6.56,6.56,0,0,0-1.62-4.68,6,6,0,0,0-4.58-1.73,7.06,7.06,0,0,0-5.31,2.15q-2.06,2.15-2.06,6.24V1048h-2.11v-21.08h2.11v4A7.82,7.82,0,0,1,313.12,1026.42Z"/><path class="cls-13" d="M95.65,1084.44a7.93,7.93,0,0,1,3.67,2.83,7.42,7.42,0,0,1,1.39,4.42,8.06,8.06,0,0,1-8,8H79.93v-29.51H91.69a7.77,7.77,0,0,1,7.75,7.76,7.2,7.2,0,0,1-3.79,6.45Zm-4-12.1H82.16v11.3h9.53a5.24,5.24,0,0,0,3.9-1.67,5.7,5.7,0,0,0,0-8A5.28,5.28,0,0,0,91.69,1072.34Zm1,25.3a5.57,5.57,0,0,0,4.11-1.75,6,6,0,0,0,0-8.39,5.53,5.53,0,0,0-4.11-1.75H82.16v11.89Z"/><path class="cls-13" d="M115.42,1100.21a10.74,10.74,0,0,1-7.86-3.19,11.08,11.08,0,0,1,0-15.64,11.25,11.25,0,0,1,15.68,0,11.11,11.11,0,0,1,0,15.64A10.7,10.7,0,0,1,115.42,1100.21Zm-6.34-4.64a9,9,0,0,0,12.66,0,9.17,9.17,0,0,0,0-12.73,9,9,0,0,0-12.66,0,9.09,9.09,0,0,0,0,12.73Z"/><path class="cls-13" d="M141.18,1100.21a10.75,10.75,0,0,1-7.87-3.19,11.11,11.11,0,0,1,0-15.64,11.27,11.27,0,0,1,15.69,0,11,11,0,0,1-7.82,18.83Zm-6.35-4.64a9,9,0,0,0,12.67,0,9.17,9.17,0,0,0,0-12.73,9,9,0,0,0-12.67,0,9.12,9.12,0,0,0,0,12.73Z"/><path class="cls-13" d="M158.29,1084.12a2.73,2.73,0,0,0,1.32,2.41,10.79,10.79,0,0,0,3.2,1.36l3.77,1a6.81,6.81,0,0,1,3.19,1.82,4.81,4.81,0,0,1,1.29,3.52,5.28,5.28,0,0,1-2.08,4.3,8.38,8.38,0,0,1-5.46,1.69,9.54,9.54,0,0,1-5.12-1.29,6.72,6.72,0,0,1-2.89-3.39l1.81-1.06a5,5,0,0,0,2.21,2.72,7.54,7.54,0,0,0,4,1,6.86,6.86,0,0,0,3.9-1,3.33,3.33,0,0,0,1.54-2.93,2.9,2.9,0,0,0-1.31-2.48,9.74,9.74,0,0,0-3.19-1.42l-3.77-1a7.12,7.12,0,0,1-3.2-1.76,4.48,4.48,0,0,1-1.31-3.37,5.42,5.42,0,0,1,2-4.26,7.65,7.65,0,0,1,5.17-1.73,8.29,8.29,0,0,1,4.4,1.14,6.87,6.87,0,0,1,2.77,3.08l-1.78,1a4.65,4.65,0,0,0-2.1-2.38,6.64,6.64,0,0,0-3.29-.82,6,6,0,0,0-3.61,1A3.36,3.36,0,0,0,158.29,1084.12Z"/><path class="cls-13" d="M186.11,1080.73h-6.28v13.7a4,4,0,0,0,.68,2.61,2.79,2.79,0,0,0,2.06.91,21.14,21.14,0,0,0,3.54-.1v1.89c-2.84.42-5,.23-6.34-.59s-2.09-2.39-2.09-4.72v-13.7H173v-2.06h4.64v-5.27l2.15-.64v5.91h6.28Z"/><path class="cls-13" d="M191.34,1084.12a2.73,2.73,0,0,0,1.32,2.41,10.79,10.79,0,0,0,3.2,1.36l3.77,1a6.86,6.86,0,0,1,3.19,1.82,4.81,4.81,0,0,1,1.29,3.52,5.28,5.28,0,0,1-2.08,4.3,8.42,8.42,0,0,1-5.46,1.69,9.6,9.6,0,0,1-5.13-1.29,6.75,6.75,0,0,1-2.88-3.39l1.81-1.06a5,5,0,0,0,2.21,2.72,7.52,7.52,0,0,0,4,1,6.86,6.86,0,0,0,3.9-1,3.33,3.33,0,0,0,1.53-2.93,2.89,2.89,0,0,0-1.3-2.48,9.84,9.84,0,0,0-3.19-1.42l-3.77-1a7.12,7.12,0,0,1-3.2-1.76,4.48,4.48,0,0,1-1.31-3.37,5.42,5.42,0,0,1,2-4.26,7.65,7.65,0,0,1,5.17-1.73,8.31,8.31,0,0,1,4.4,1.14,6.85,6.85,0,0,1,2.76,3.08l-1.77,1a4.65,4.65,0,0,0-2.1-2.38,6.64,6.64,0,0,0-3.29-.82,6,6,0,0,0-3.61,1A3.33,3.33,0,0,0,191.34,1084.12Z"/><path class="cls-13" d="M220.89,1070.23h2.23v29.51h-2.23Z"/><path class="cls-13" d="M252.55,1078.2a7.44,7.44,0,0,1,5.56,2.15,8.22,8.22,0,0,1,2.11,6v13.36h-2.11v-13.36a6.28,6.28,0,0,0-1.54-4.55,5.36,5.36,0,0,0-4.07-1.6,5.87,5.87,0,0,0-4.57,1.93q-1.76,2-1.75,5.82v11.76h-2.11v-13.36a6.53,6.53,0,0,0-1.45-4.55,5,5,0,0,0-3.94-1.6,6.17,6.17,0,0,0-4.66,2q-1.87,1.95-1.88,5.79v11.76H230v-21.07h2.1v3.62a7.74,7.74,0,0,1,10.84-3,6.45,6.45,0,0,1,2.53,3.18,7.51,7.51,0,0,1,3-3.22A8,8,0,0,1,252.55,1078.2Z"/><path class="cls-13" d="M288.67,1078.2a7.47,7.47,0,0,1,5.57,2.15,8.26,8.26,0,0,1,2.11,6v13.36h-2.11v-13.36a6.33,6.33,0,0,0-1.54-4.55,5.38,5.38,0,0,0-4.07-1.6,5.86,5.86,0,0,0-4.57,1.93q-1.76,2-1.75,5.82v11.76H280.2v-13.36a6.57,6.57,0,0,0-1.45-4.55,5.07,5.07,0,0,0-3.95-1.6,6.16,6.16,0,0,0-4.65,2c-1.26,1.3-1.88,3.23-1.88,5.79v11.76h-2.11v-21.07h2.11v3.62a7.73,7.73,0,0,1,10.83-3,6.34,6.34,0,0,1,2.53,3.18,7.51,7.51,0,0,1,3-3.22A8,8,0,0,1,288.67,1078.2Z"/><path class="cls-13" d="M317.46,1078.67h2.11v21.07h-2.11v-4a7.82,7.82,0,0,1-7.54,4.47,7.92,7.92,0,0,1-6-2.3,8.49,8.49,0,0,1-2.21-6.13v-13.11h2.15v13.11a6.55,6.55,0,0,0,1.62,4.67,6,6,0,0,0,4.58,1.73,7,7,0,0,0,5.31-2.15c1.38-1.43,2.06-3.51,2.06-6.24Z"/><path class="cls-13" d="M335.72,1078.2a7.89,7.89,0,0,1,6,2.3,8.45,8.45,0,0,1,2.21,6.13v13.11h-2.14v-13.11a6.6,6.6,0,0,0-1.63-4.68,6,6,0,0,0-4.57-1.72,7,7,0,0,0-5.31,2.15q-2.07,2.14-2.07,6.23v11.13h-2.11v-21.07h2.11v4A7.83,7.83,0,0,1,335.72,1078.2Z"/><path class="cls-13" d="M352.07,1073.08a1.66,1.66,0,0,1-1.18.49,1.67,1.67,0,0,1-1.18-.49,1.57,1.57,0,0,1-.5-1.2,1.53,1.53,0,0,1,.5-1.16,1.67,1.67,0,0,1,1.18-.49,1.66,1.66,0,0,1,1.18.49,1.54,1.54,0,0,1,.51,1.16A1.58,1.58,0,0,1,352.07,1073.08Zm-2.23,26.66v-21.07H352v21.07Z"/><path class="cls-13" d="M369.23,1080.73H363v13.7a4,4,0,0,0,.67,2.61,2.83,2.83,0,0,0,2.07.91,21.14,21.14,0,0,0,3.54-.1v1.89c-2.84.42-5,.23-6.34-.59s-2.09-2.39-2.09-4.72v-13.7h-4.64v-2.06h4.64v-5.27l2.15-.64v5.91h6.28Z"/><path class="cls-13" d="M390.14,1078.67h2.27l-9.1,23a11.52,11.52,0,0,1-3.46,4.91,6.72,6.72,0,0,1-4.89,1.58v-2a4.92,4.92,0,0,0,3.65-1.16,9.31,9.31,0,0,0,2.63-3.77l.46-1.16L372,1078.67h2.28l8.49,18.69Z"/><path class="cls-13" d="M102.73,1150.73l-2,1.13-3.4-3.57a11.14,11.14,0,0,1-8.82,3.7,10.3,10.3,0,0,1-7-2.26,7.59,7.59,0,0,1-2.62-6,9,9,0,0,1,1.52-5.08,9.54,9.54,0,0,1,4.34-3.52,8.78,8.78,0,0,1-2.36-5.78,7.11,7.11,0,0,1,2.45-5.63,8.66,8.66,0,0,1,5.9-2.13,9,9,0,0,1,5.06,1.48,7.94,7.94,0,0,1,3.16,4.09l-1.85,1.09a6.35,6.35,0,0,0-2.39-3.28,6.55,6.55,0,0,0-3.94-1.23,6.29,6.29,0,0,0-4.38,1.57,5.11,5.11,0,0,0-1.73,4,5.62,5.62,0,0,0,.8,3,16.67,16.67,0,0,0,2.39,3l9.23,9.66A16.63,16.63,0,0,0,98.9,1139l2,1.15a18.08,18.08,0,0,1-2.2,6.38Zm-14.29-.89a9.32,9.32,0,0,0,7.37-3.16l-9.44-9.92a7.9,7.9,0,0,0-3.91,2.84,7.14,7.14,0,0,0-1.27,4.06,5.59,5.59,0,0,0,2,4.54A8,8,0,0,0,88.44,1149.84Z"/><path class="cls-13" d="M137.42,1151.53l-7.11-12.1H121v12.1h-2.24V1122h11.64a8.7,8.7,0,0,1,6.89,14,8.66,8.66,0,0,1-4.66,3.07l7.34,12.4ZM121,1124.13v13.19h9.4a6.22,6.22,0,0,0,4.59-1.92,6.68,6.68,0,0,0,0-9.33,6.16,6.16,0,0,0-4.59-1.94Z"/><path class="cls-13" d="M152.64,1130a9.56,9.56,0,0,1,7.53,3.28,11.48,11.48,0,0,1,2.88,7.8c0,.11,0,.28,0,.51s0,.39,0,.5H143.92a8.55,8.55,0,0,0,2.84,5.72,9.69,9.69,0,0,0,10.52,1.11,7.25,7.25,0,0,0,2.87-2.78l1.85,1.1a9.28,9.28,0,0,1-3.71,3.47,11.4,11.4,0,0,1-5.48,1.29,10.82,10.82,0,0,1-8-3.1,10.65,10.65,0,0,1-3.12-7.9,10.8,10.8,0,0,1,3.06-7.86A10.47,10.47,0,0,1,152.64,1130Zm0,2a8.43,8.43,0,0,0-6,2.23,8.68,8.68,0,0,0-2.74,5.78h16.94a8.63,8.63,0,0,0-2.67-5.88A8,8,0,0,0,152.64,1132Z"/><path class="cls-13" d="M186.58,1122h2.1v29.51h-2.1v-4.89a10,10,0,0,1-3.69,3.92,10.28,10.28,0,0,1-5.38,1.43,10.53,10.53,0,0,1-7.73-3.18,11.21,11.21,0,0,1,0-15.64,10.53,10.53,0,0,1,7.73-3.18,10.19,10.19,0,0,1,5.38,1.43,9.88,9.88,0,0,1,3.69,3.92Zm-15.28,25.33a9,9,0,0,0,12.68,0,9.09,9.09,0,0,0,0-12.73,9,9,0,0,0-12.68,0,9.09,9.09,0,0,0,0,12.73Z"/><path class="cls-13" d="M210.35,1130.45h2.11v21.08h-2.11v-4a7.83,7.83,0,0,1-7.54,4.47,7.91,7.91,0,0,1-6-2.3,8.47,8.47,0,0,1-2.21-6.13v-13.11h2.15v13.11a6.56,6.56,0,0,0,1.62,4.68A6,6,0,0,0,203,1150a7.07,7.07,0,0,0,5.32-2.15,8.71,8.71,0,0,0,2.06-6.24Z"/><path class="cls-13" d="M228.6,1152a10.8,10.8,0,0,1-11.08-11,10.62,10.62,0,0,1,3.16-7.84,11.47,11.47,0,0,1,13.49-1.71,8.66,8.66,0,0,1,3.62,3.94l-1.72,1a7.13,7.13,0,0,0-2.93-3.2,8.76,8.76,0,0,0-4.54-1.18,8.58,8.58,0,0,0-6.36,2.59,9.22,9.22,0,0,0,0,12.77,8.59,8.59,0,0,0,6.36,2.6,8.85,8.85,0,0,0,4.54-1.18,7.92,7.92,0,0,0,3.05-3.21l1.77,1.06a9.49,9.49,0,0,1-3.77,3.9A11,11,0,0,1,228.6,1152Z"/><path class="cls-13" d="M251.87,1130a9.56,9.56,0,0,1,7.53,3.28,11.48,11.48,0,0,1,2.88,7.8c0,.11,0,.28,0,.51s0,.39,0,.5H243.15a8.55,8.55,0,0,0,2.84,5.72,9.69,9.69,0,0,0,10.52,1.11,7.25,7.25,0,0,0,2.87-2.78l1.85,1.1a9.28,9.28,0,0,1-3.71,3.47A11.4,11.4,0,0,1,252,1152a10.82,10.82,0,0,1-8-3.1A10.65,10.65,0,0,1,241,1141a10.8,10.8,0,0,1,3.06-7.86A10.47,10.47,0,0,1,251.87,1130Zm0,2a8.43,8.43,0,0,0-6,2.23,8.72,8.72,0,0,0-2.74,5.78h16.94a8.63,8.63,0,0,0-2.67-5.88A8,8,0,0,0,251.87,1132Z"/><path class="cls-13" d="M267.81,1135.91a2.73,2.73,0,0,0,1.32,2.4,10.79,10.79,0,0,0,3.2,1.36l3.77,1a6.76,6.76,0,0,1,3.19,1.81,4.81,4.81,0,0,1,1.29,3.52,5.28,5.28,0,0,1-2.09,4.3A8.38,8.38,0,0,1,273,1152a9.56,9.56,0,0,1-5.12-1.29,6.67,6.67,0,0,1-2.88-3.39l1.81-1a5,5,0,0,0,2.21,2.72,7.51,7.51,0,0,0,4,1,6.82,6.82,0,0,0,3.9-1,3.3,3.3,0,0,0,1.54-2.92,2.89,2.89,0,0,0-1.31-2.49,9.69,9.69,0,0,0-3.18-1.42l-3.77-1a7,7,0,0,1-3.2-1.77,4.47,4.47,0,0,1-1.31-3.37,5.43,5.43,0,0,1,2-4.26,7.65,7.65,0,0,1,5.17-1.72,8.4,8.4,0,0,1,4.4,1.13,6.9,6.9,0,0,1,2.76,3.08l-1.77,1a4.63,4.63,0,0,0-2.11-2.38,6.6,6.6,0,0,0-3.28-.82,5.94,5.94,0,0,0-3.61,1.06A3.32,3.32,0,0,0,267.81,1135.91Z"/><path class="cls-13" d="M317.21,1151.53l-2.88-7.51H299.56l-2.88,7.51h-2.36L305.79,1122h2.36l11.42,29.51Zm-16.84-9.62h13.15l-6.58-17.14Z"/><path class="cls-13" d="M332.68,1152a10.8,10.8,0,0,1-11.08-11,10.62,10.62,0,0,1,3.16-7.84,11.47,11.47,0,0,1,13.49-1.71,8.66,8.66,0,0,1,3.62,3.94l-1.73,1a7,7,0,0,0-2.93-3.2,8.7,8.7,0,0,0-4.53-1.18,8.58,8.58,0,0,0-6.36,2.59,9.22,9.22,0,0,0,0,12.77,8.59,8.59,0,0,0,6.36,2.6,8.79,8.79,0,0,0,4.53-1.18,7.88,7.88,0,0,0,3.06-3.21l1.77,1.06a9.49,9.49,0,0,1-3.77,3.9A11,11,0,0,1,332.68,1152Z"/><path class="cls-13" d="M348.91,1124.86a1.67,1.67,0,0,1-2.36,0,1.57,1.57,0,0,1-.5-1.2,1.55,1.55,0,0,1,.5-1.16,1.69,1.69,0,0,1,2.36,0,1.56,1.56,0,0,1,.51,1.16A1.58,1.58,0,0,1,348.91,1124.86Zm-2.23,26.67v-21.08h2.11v21.08Z"/><path class="cls-13" d="M373.87,1122H376v29.51h-2.1v-4.89a9.87,9.87,0,0,1-3.69,3.92,10.28,10.28,0,0,1-5.38,1.43,10.53,10.53,0,0,1-7.73-3.18,11.21,11.21,0,0,1,0-15.64,10.53,10.53,0,0,1,7.73-3.18,10.19,10.19,0,0,1,5.38,1.43,9.75,9.75,0,0,1,3.69,3.92Zm-15.28,25.33a9,9,0,0,0,12.68,0,9.09,9.09,0,0,0,0-12.73,9,9,0,0,0-12.68,0,9.09,9.09,0,0,0,0,12.73Z"/><path class="cls-13" d="M384.7,1124.86a1.67,1.67,0,0,1-2.36,0,1.58,1.58,0,0,1-.51-1.2,1.56,1.56,0,0,1,.51-1.16,1.69,1.69,0,0,1,2.36,0,1.56,1.56,0,0,1,.51,1.16A1.58,1.58,0,0,1,384.7,1124.86Zm-2.23,26.67v-21.08h2.1v21.08Z"/><path class="cls-13" d="M401.86,1132.51h-6.28v13.7a4.08,4.08,0,0,0,.67,2.62,2.87,2.87,0,0,0,2.07.9,20.16,20.16,0,0,0,3.54-.1v1.9q-4.26.63-6.35-.59c-1.39-.82-2.08-2.39-2.08-4.73v-13.7h-4.64v-2.06h4.64v-5.27l2.15-.63v5.9h6.28Z"/><path class="cls-13" d="M422.76,1130.45H425l-9.1,23a11.65,11.65,0,0,1-3.46,4.91,6.76,6.76,0,0,1-4.89,1.58v-2a5,5,0,0,0,3.65-1.16,9.42,9.42,0,0,0,2.63-3.78l.46-1.15-9.69-21.44h2.27l8.5,18.69Z"/><path class="cls-13" d="M307.73,145.57l-2.88-7.51H290.08l-2.88,7.51h-2.36l11.47-29.51h2.36l11.42,29.51ZM290.89,136H304l-6.58-17.14Z"/><path class="cls-13" d="M314,145.57V114.79h2.11v30.78Z"/><path class="cls-13" d="M337.75,124.49h2.1v21.08h-2.1v-4A7.84,7.84,0,0,1,330.2,146a7.92,7.92,0,0,1-6-2.3A8.47,8.47,0,0,1,322,137.6V124.49h2.15V137.6a6.56,6.56,0,0,0,1.62,4.68,6,6,0,0,0,4.58,1.73,7.06,7.06,0,0,0,5.31-2.15,8.67,8.67,0,0,0,2.07-6.24Z"/><path class="cls-13" d="M368.85,124a7.43,7.43,0,0,1,5.57,2.15,8.25,8.25,0,0,1,2.11,6v13.37h-2.11V132.2a6.3,6.3,0,0,0-1.54-4.55,5.38,5.38,0,0,0-4.07-1.6,5.87,5.87,0,0,0-4.57,1.94q-1.75,1.94-1.75,5.82v11.76h-2.11V132.2a6.54,6.54,0,0,0-1.45-4.55,5.06,5.06,0,0,0-3.94-1.6,6.17,6.17,0,0,0-4.66,2,8.09,8.09,0,0,0-1.88,5.8v11.76h-2.11V124.49h2.11v3.62a7.22,7.22,0,0,1,6.79-4.08,7.37,7.37,0,0,1,4.05,1.11,6.54,6.54,0,0,1,2.53,3.18,7.56,7.56,0,0,1,3-3.22A8,8,0,0,1,368.85,124Z"/><path class="cls-13" d="M384.7,118.9a1.62,1.62,0,0,1-1.18.49,1.65,1.65,0,0,1-1.18-.49,1.61,1.61,0,0,1-.5-1.2,1.58,1.58,0,0,1,.5-1.16,1.68,1.68,0,0,1,1.18-.48,1.65,1.65,0,0,1,1.18.48,1.56,1.56,0,0,1,.51,1.16A1.58,1.58,0,0,1,384.7,118.9Zm-2.23,26.67V124.49h2.11v21.08Z"/><path class="cls-13" d="M400.72,124a7.92,7.92,0,0,1,6,2.29,8.5,8.5,0,0,1,2.21,6.14v13.11h-2.15V132.46a6.56,6.56,0,0,0-1.62-4.68,6,6,0,0,0-4.58-1.73,7.06,7.06,0,0,0-5.31,2.15q-2.06,2.15-2.06,6.24v11.13h-2.11V124.49h2.11v4A7.83,7.83,0,0,1,400.72,124Z"/><path class="cls-13" d="M430,124.49h2.11v21.08H430v-4a8.71,8.71,0,0,1-13.51,2.17,8.43,8.43,0,0,1-2.21-6.13V124.49h2.15V137.6a6.56,6.56,0,0,0,1.62,4.68,6,6,0,0,0,4.57,1.73,7,7,0,0,0,5.31-2.15,8.67,8.67,0,0,0,2.07-6.24Z"/><path class="cls-13" d="M461.13,124a7.41,7.41,0,0,1,5.56,2.15,8.21,8.21,0,0,1,2.11,6v13.37h-2.11V132.2a6.34,6.34,0,0,0-1.53-4.55,5.39,5.39,0,0,0-4.07-1.6,5.89,5.89,0,0,0-4.58,1.94q-1.74,1.94-1.74,5.82v11.76h-2.11V132.2a6.55,6.55,0,0,0-1.46-4.55,5,5,0,0,0-3.94-1.6,6.19,6.19,0,0,0-4.66,2q-1.87,2-1.87,5.8v11.76h-2.11V124.49h2.11v3.62a7.21,7.21,0,0,1,6.78-4.08,7.32,7.32,0,0,1,4.05,1.11,6.48,6.48,0,0,1,2.53,3.18,7.56,7.56,0,0,1,3-3.22A8,8,0,0,1,461.13,124Z"/><path class="cls-13" d="M304.23,170H290.11v11.8h13.62v2.11H290.11v13.49h-2.23V167.84h16.35Z"/><path class="cls-13" d="M318.94,197.81a10.77,10.77,0,0,1-7.86-3.18,11.11,11.11,0,0,1,0-15.64,11.25,11.25,0,0,1,15.68,0,11.08,11.08,0,0,1,0,15.64A10.71,10.71,0,0,1,318.94,197.81Zm-6.34-4.63a9,9,0,0,0,12.67,0,9.17,9.17,0,0,0,0-12.73,9,9,0,0,0-12.67,0,9.12,9.12,0,0,0,0,12.73Z"/><path class="cls-13" d="M337.28,170.69a1.69,1.69,0,0,1-2.36,0,1.61,1.61,0,0,1-.51-1.2,1.54,1.54,0,0,1,.51-1.16,1.67,1.67,0,0,1,2.36,0,1.54,1.54,0,0,1,.51,1.16A1.61,1.61,0,0,1,337.28,170.69Zm-2.23,26.66V176.27h2.1v21.08Z"/><path class="cls-13" d="M343.65,197.35V166.58h2.1v30.77Z"/><path class="cls-13" d="M366.16,195.24h13.91v2.11H363.92V167.84h2.24Z"/><path class="cls-13" d="M386.52,170.69a1.66,1.66,0,0,1-1.18.48,1.65,1.65,0,0,1-1.18-.48,1.61,1.61,0,0,1-.51-1.2,1.54,1.54,0,0,1,.51-1.16,1.67,1.67,0,0,1,2.36,0,1.57,1.57,0,0,1,.5,1.16A1.64,1.64,0,0,1,386.52,170.69Zm-2.24,26.66V176.27h2.11v21.08Z"/><path class="cls-13" d="M402.54,175.81a7.86,7.86,0,0,1,6,2.3,8.43,8.43,0,0,1,2.21,6.13v13.11h-2.15V184.24a6.56,6.56,0,0,0-1.62-4.68,6,6,0,0,0-4.57-1.73,7,7,0,0,0-5.31,2.15q-2.07,2.15-2.07,6.24v11.13h-2.11V176.27H395v4A7.83,7.83,0,0,1,402.54,175.81Z"/><path class="cls-13" d="M418.89,170.69a1.69,1.69,0,0,1-2.36,0,1.61,1.61,0,0,1-.51-1.2,1.54,1.54,0,0,1,.51-1.16,1.67,1.67,0,0,1,2.36,0,1.54,1.54,0,0,1,.51,1.16A1.61,1.61,0,0,1,418.89,170.69Zm-2.23,26.66V176.27h2.1v21.08Z"/><path class="cls-13" d="M434.91,175.81a7.85,7.85,0,0,1,6,2.3,8.44,8.44,0,0,1,2.22,6.13v13.11h-2.15V184.24a6.52,6.52,0,0,0-1.63-4.68,6,6,0,0,0-4.57-1.73,7.06,7.06,0,0,0-5.31,2.15q-2.07,2.15-2.07,6.24v11.13h-2.1V176.27h2.1v4A7.84,7.84,0,0,1,434.91,175.81Z"/><path class="cls-13" d="M467.75,176.27h2.11v20.07a9.19,9.19,0,0,1-3,7.25,10.86,10.86,0,0,1-7.5,2.65,13.32,13.32,0,0,1-6.2-1.34,8.51,8.51,0,0,1-3.75-3.71l1.86-1.06q2,4.1,8.09,4.09a8.55,8.55,0,0,0,6.15-2.13,7.58,7.58,0,0,0,2.24-5.75v-3.88a9.81,9.81,0,0,1-3.69,3.92,10.19,10.19,0,0,1-5.38,1.43,10.53,10.53,0,0,1-7.73-3.18A11.21,11.21,0,0,1,451,179a10.53,10.53,0,0,1,7.73-3.18,10.28,10.28,0,0,1,5.38,1.43,9.81,9.81,0,0,1,3.69,3.92Zm-15.28,16.91a9,9,0,0,0,12.69,0,9.12,9.12,0,0,0,0-12.73,9,9,0,0,0-12.69,0,9.09,9.09,0,0,0,0,12.73Z"/><path class="cls-13" d="M1090.19,220.18a8.94,8.94,0,0,1,9.19,9.14,8.78,8.78,0,0,1-2.62,6.52,9,9,0,0,1-6.57,2.59h-7.8v11.25h-2.24v-29.5Zm0,16.14a6.71,6.71,0,0,0,5-2,6.82,6.82,0,0,0,2-5,6.9,6.9,0,0,0-2-5.06,6.71,6.71,0,0,0-5-2h-7.8v14Z"/><path class="cls-13" d="M1119.65,228.61h2.11v21.07h-2.11v-4a7.82,7.82,0,0,1-7.54,4.47,7.92,7.92,0,0,1-6-2.3,8.49,8.49,0,0,1-2.21-6.13V228.61h2.15v13.11a6.59,6.59,0,0,0,1.62,4.68,6,6,0,0,0,4.58,1.72,7,7,0,0,0,5.31-2.15,8.67,8.67,0,0,0,2.06-6.23Z"/><path class="cls-13" d="M1128.25,249.68V218.91h2.11v30.77Z"/><path class="cls-13" d="M1136.85,249.68V218.91H1139v30.77Z"/><path class="cls-13" d="M1145.87,237.67v-2h15.18v2Z"/><path class="cls-13" d="M1178.29,230.67H1172v13.7a4.08,4.08,0,0,0,.67,2.62,2.87,2.87,0,0,0,2.07.9,21.14,21.14,0,0,0,3.54-.1v1.89q-4.26.65-6.34-.59c-1.4-.81-2.09-2.39-2.09-4.72v-13.7h-4.64v-2.06h4.64v-5.27l2.15-.64v5.91h6.28Z"/><path class="cls-13" d="M1200.63,228.61h2.15v21.07h-2.15v-4.76a9.93,9.93,0,0,1-3.71,3.84,10.41,10.41,0,0,1-5.35,1.39,11,11,0,0,1,0-22,10.41,10.41,0,0,1,5.35,1.39,9.93,9.93,0,0,1,3.71,3.84Zm-15.24,16.9a9,9,0,0,0,12.67,0,9.17,9.17,0,0,0,0-12.73,9,9,0,0,0-12.67,0,9.12,9.12,0,0,0,0,12.73Z"/><path class="cls-13" d="M1220.44,228.14a10.53,10.53,0,0,1,7.74,3.18,11.21,11.21,0,0,1,0,15.64,10.5,10.5,0,0,1-7.74,3.19,10.19,10.19,0,0,1-5.37-1.44,9.75,9.75,0,0,1-3.69-3.92v4.89h-2.11v-29.5h2.11V233.5a9.75,9.75,0,0,1,3.69-3.92A10.19,10.19,0,0,1,1220.44,228.14ZM1214,245.51a9.12,9.12,0,1,0-2.59-6.37A8.62,8.62,0,0,0,1214,245.51Z"/><path class="cls-13" d="M1272.46,245.7a15.31,15.31,0,1,1,4.43-10.77A14.67,14.67,0,0,1,1272.46,245.7Zm-20-1.52a13,13,0,0,0,18.42,0,13.23,13.23,0,0,0,0-18.5,13,13,0,0,0-18.42,0,13.23,13.23,0,0,0,0,18.5Z"/><path class="cls-13" d="M1293.29,228.14a10.53,10.53,0,0,1,7.73,3.18,11.21,11.21,0,0,1,0,15.64,10.5,10.5,0,0,1-7.73,3.19,10.2,10.2,0,0,1-5.38-1.44,9.75,9.75,0,0,1-3.69-3.92v13.32h-2.11v-29.5h2.11v4.89a9.75,9.75,0,0,1,3.69-3.92A10.2,10.2,0,0,1,1293.29,228.14Zm-6.48,17.37a9,9,0,1,0,0-12.73,9.12,9.12,0,0,0,0,12.73Z"/><path class="cls-13" d="M1318.79,228.14a9.53,9.53,0,0,1,7.52,3.29,11.4,11.4,0,0,1,2.89,7.8c0,.11,0,.28,0,.51s0,.39,0,.5h-19.1a8.51,8.51,0,0,0,2.85,5.71,8.86,8.86,0,0,0,6.09,2.17,9,9,0,0,0,4.43-1.05,7.23,7.23,0,0,0,2.86-2.78l1.86,1.09a9.31,9.31,0,0,1-3.71,3.48,11.4,11.4,0,0,1-5.48,1.29,10.85,10.85,0,0,1-8-3.1,10.68,10.68,0,0,1-3.12-7.91,10.83,10.83,0,0,1,3.06-7.86A10.49,10.49,0,0,1,1318.79,228.14Zm0,2a8.45,8.45,0,0,0-6,2.23,8.74,8.74,0,0,0-2.74,5.78h17a8.69,8.69,0,0,0-2.68-5.89A8,8,0,0,0,1318.79,230.17Z"/><path class="cls-13" d="M1343.79,228.14a7.9,7.9,0,0,1,6,2.3,8.45,8.45,0,0,1,2.21,6.13v13.11h-2.15V236.57a6.59,6.59,0,0,0-1.62-4.68,6,6,0,0,0-4.57-1.72,7,7,0,0,0-5.31,2.15q-2.07,2.15-2.07,6.23v11.13h-2.11V228.61h2.11v4A7.83,7.83,0,0,1,1343.79,228.14Z"/><path class="cls-13" d="M1360.14,223a1.67,1.67,0,0,1-2.36,0,1.58,1.58,0,0,1-.51-1.2,1.54,1.54,0,0,1,.51-1.16,1.69,1.69,0,0,1,2.36,0,1.54,1.54,0,0,1,.51,1.16A1.58,1.58,0,0,1,1360.14,223Zm-2.23,26.66V228.61H1360v21.07Z"/><path class="cls-13" d="M1376.16,228.14a7.89,7.89,0,0,1,6,2.3,8.45,8.45,0,0,1,2.22,6.13v13.11h-2.15V236.57a6.56,6.56,0,0,0-1.63-4.68,6,6,0,0,0-4.57-1.72,7,7,0,0,0-5.31,2.15q-2.07,2.15-2.07,6.23v11.13h-2.1V228.61h2.1v4A7.84,7.84,0,0,1,1376.16,228.14Z"/><path class="cls-13" d="M1409,228.61h2.11v20.06a9.19,9.19,0,0,1-3,7.25,10.87,10.87,0,0,1-7.5,2.66,13.2,13.2,0,0,1-6.2-1.35,8.46,8.46,0,0,1-3.75-3.71l1.86-1.05q2,4.08,8.09,4.08a8.59,8.59,0,0,0,6.15-2.12,7.58,7.58,0,0,0,2.24-5.76v-3.88a9.75,9.75,0,0,1-3.69,3.92,10.2,10.2,0,0,1-5.38,1.44,10.5,10.5,0,0,1-7.73-3.19,11,11,0,0,1,7.73-18.82,10.2,10.2,0,0,1,5.38,1.44,9.75,9.75,0,0,1,3.69,3.92Zm-15.28,16.9a9,9,0,0,0,12.69,0,9.12,9.12,0,0,0,0-12.73,9,9,0,0,0-12.69,12.73Z"/><path class="cls-13" d="M1439.64,230.67h-6.28v13.7A4.07,4.07,0,0,0,1434,247a2.86,2.86,0,0,0,2.06.9,21.14,21.14,0,0,0,3.54-.1v1.89c-2.83.43-5,.23-6.34-.59s-2.09-2.39-2.09-4.72v-13.7h-4.63v-2.06h4.63v-5.27l2.15-.64v5.91h6.28Z"/><path class="cls-13" d="M1453.09,250.15a10.74,10.74,0,0,1-7.86-3.19,11.08,11.08,0,0,1,0-15.64,11.25,11.25,0,0,1,15.68,0,11.08,11.08,0,0,1,0,15.64A10.7,10.7,0,0,1,1453.09,250.15Zm-6.34-4.64a9,9,0,0,0,12.66,0,9.14,9.14,0,0,0,0-12.73,9,9,0,0,0-12.66,0,9.09,9.09,0,0,0,0,12.73Z"/><path class="cls-13" d="M1090.19,272a8.94,8.94,0,0,1,9.19,9.15,8.77,8.77,0,0,1-2.62,6.51,8.93,8.93,0,0,1-6.57,2.59h-7.8v11.26h-2.24V272Zm0,16.14a6.71,6.71,0,0,0,5-2,7.45,7.45,0,0,0,0-10.07,6.71,6.71,0,0,0-5-2h-7.8v14Z"/><path class="cls-13" d="M1106.16,284.52q1.9-4.42,7-4.43v2a7,7,0,0,0-5,1.92,7.5,7.5,0,0,0-2,5.71v11.72h-2.1V280.39h2.1Z"/><path class="cls-13" d="M1125.85,301.93a10.77,10.77,0,0,1-7.86-3.18,11.08,11.08,0,0,1,0-15.64,11.25,11.25,0,0,1,15.68,0,11.11,11.11,0,0,1,0,15.64A10.73,10.73,0,0,1,1125.85,301.93Zm-6.34-4.64a9,9,0,0,0,12.66,0,9.17,9.17,0,0,0,0-12.73,9,9,0,0,0-12.66,0,9.09,9.09,0,0,0,0,12.73Z"/><path class="cls-13" d="M1164.46,279.93a7.43,7.43,0,0,1,5.57,2.15,8.25,8.25,0,0,1,2.11,6v13.37H1170V288.1a6.3,6.3,0,0,0-1.54-4.55,5.38,5.38,0,0,0-4.07-1.6,5.87,5.87,0,0,0-4.57,1.94q-1.75,1.94-1.75,5.82v11.76H1156V288.1a6.54,6.54,0,0,0-1.45-4.55,5.06,5.06,0,0,0-3.94-1.6,6.17,6.17,0,0,0-4.66,2,8.09,8.09,0,0,0-1.88,5.8v11.76H1142V280.39h2.11V284a7.21,7.21,0,0,1,6.79-4.08,7.31,7.31,0,0,1,4,1.11,6.41,6.41,0,0,1,2.53,3.19,7.49,7.49,0,0,1,3-3.23A8,8,0,0,1,1164.46,279.93Z"/><path class="cls-13" d="M1187.73,301.93a10.77,10.77,0,0,1-7.86-3.18,11.11,11.11,0,0,1,0-15.64,11.25,11.25,0,0,1,15.68,0,11.08,11.08,0,0,1,0,15.64A10.71,10.71,0,0,1,1187.73,301.93Zm-6.34-4.64a9,9,0,0,0,12.67,0,9.17,9.17,0,0,0,0-12.73,9,9,0,0,0-12.67,0,9.12,9.12,0,0,0,0,12.73Z"/><path class="cls-13" d="M1214.2,282.45h-6.28v13.71a4,4,0,0,0,.68,2.61,2.82,2.82,0,0,0,2.06.9,20.12,20.12,0,0,0,3.54-.1v1.9c-2.83.42-5,.22-6.34-.59s-2.09-2.39-2.09-4.72V282.45h-4.63v-2.06h4.63v-5.27l2.15-.63v5.9h6.28Z"/><path class="cls-13" d="M1227.48,279.93a9.56,9.56,0,0,1,7.53,3.28,11.49,11.49,0,0,1,2.89,7.8c0,.11,0,.28,0,.51s0,.39,0,.5h-19.09a8.55,8.55,0,0,0,2.84,5.72,9.69,9.69,0,0,0,10.52,1.11,7.19,7.19,0,0,0,2.87-2.78l1.85,1.1a9.28,9.28,0,0,1-3.71,3.47,11.4,11.4,0,0,1-5.48,1.29,10.84,10.84,0,0,1-8-3.1,10.65,10.65,0,0,1-3.11-7.9,10.79,10.79,0,0,1,3-7.86A10.47,10.47,0,0,1,1227.48,279.93Zm0,2a8.45,8.45,0,0,0-6,2.23,8.72,8.72,0,0,0-2.74,5.78h16.94a8.63,8.63,0,0,0-2.67-5.88A8,8,0,0,0,1227.48,282Z"/><path class="cls-13" d="M1263.52,301.93a12.25,12.25,0,0,1-6.93-1.88,9.27,9.27,0,0,1-3.86-5.08l1.94-1.13a7.9,7.9,0,0,0,3.06,4.34,9.74,9.74,0,0,0,5.79,1.6,8.27,8.27,0,0,0,5.51-1.64,5.38,5.38,0,0,0,1.91-4.26,4.32,4.32,0,0,0-1.85-3.76,22.71,22.71,0,0,0-5.77-2.57l-2.08-.76-1.88-.68a9.82,9.82,0,0,1-1.82-.83c-.4-.25-.86-.59-1.41-1a4.45,4.45,0,0,1-1.2-1.29,7.6,7.6,0,0,1-.68-1.56,6.32,6.32,0,0,1-.29-2,7.16,7.16,0,0,1,2.55-5.75,9.5,9.5,0,0,1,6.38-2.18,10,10,0,0,1,5.9,1.73,10.24,10.24,0,0,1,3.59,4.47l-1.9,1.05a7.61,7.61,0,0,0-7.59-5.1,7.06,7.06,0,0,0-4.85,1.61,5.22,5.22,0,0,0-1.81,4.08,4.09,4.09,0,0,0,1.69,3.59,22.49,22.49,0,0,0,5.52,2.44l3.8,1.42a16.34,16.34,0,0,1,3,1.51,6.2,6.2,0,0,1,2.29,2.36,6.79,6.79,0,0,1,.72,3.19,7.26,7.26,0,0,1-2.66,5.88A10.65,10.65,0,0,1,1263.52,301.93Z"/><path class="cls-13" d="M1293.45,280.39h2.11v21.08h-2.11v-4a7.82,7.82,0,0,1-7.54,4.47,7.92,7.92,0,0,1-6-2.3,8.47,8.47,0,0,1-2.21-6.13V280.39h2.15V293.5a6.56,6.56,0,0,0,1.62,4.68,6,6,0,0,0,4.58,1.73,7.06,7.06,0,0,0,5.31-2.15c1.38-1.44,2.06-3.52,2.06-6.24Z"/><path class="cls-13" d="M1303.49,285.85a2.73,2.73,0,0,0,1.32,2.4,10.79,10.79,0,0,0,3.2,1.36l3.77,1a6.76,6.76,0,0,1,3.19,1.81,4.83,4.83,0,0,1,1.29,3.52,5.28,5.28,0,0,1-2.09,4.3,8.38,8.38,0,0,1-5.46,1.69,9.56,9.56,0,0,1-5.12-1.29,6.73,6.73,0,0,1-2.89-3.39l1.82-1.05a5,5,0,0,0,2.21,2.72,7.51,7.51,0,0,0,4,1,6.82,6.82,0,0,0,3.9-1,3.3,3.3,0,0,0,1.54-2.92,2.9,2.9,0,0,0-1.3-2.49,9.84,9.84,0,0,0-3.19-1.42l-3.77-1a7,7,0,0,1-3.2-1.77,4.43,4.43,0,0,1-1.31-3.37,5.45,5.45,0,0,1,2-4.26,7.65,7.65,0,0,1,5.17-1.72,8.4,8.4,0,0,1,4.4,1.13,6.9,6.9,0,0,1,2.76,3.08l-1.77,1a4.63,4.63,0,0,0-2.11-2.38,6.6,6.6,0,0,0-3.28-.82,5.94,5.94,0,0,0-3.61,1.06A3.32,3.32,0,0,0,1303.49,285.85Z"/><path class="cls-13" d="M1331.31,282.45H1325v13.71a4,4,0,0,0,.67,2.61,2.83,2.83,0,0,0,2.07.9,20.12,20.12,0,0,0,3.54-.1v1.9q-4.26.63-6.34-.59c-1.4-.82-2.09-2.39-2.09-4.72V282.45h-4.64v-2.06h4.64v-5.27l2.15-.63v5.9h6.28Z"/><path class="cls-13" d="M1353.65,280.39h2.15v21.08h-2.15V296.7a9.93,9.93,0,0,1-3.71,3.84,10.31,10.31,0,0,1-5.35,1.39,11,11,0,0,1,0-22,10.31,10.31,0,0,1,5.35,1.39,9.83,9.83,0,0,1,3.71,3.83Zm-15.24,16.9a9,9,0,0,0,12.67,0,9.17,9.17,0,0,0,0-12.73,9,9,0,0,0-12.67,0,9.12,9.12,0,0,0,0,12.73Z"/><path class="cls-13" d="M1364.53,274.8a1.67,1.67,0,0,1-2.36,0,1.58,1.58,0,0,1-.51-1.2,1.56,1.56,0,0,1,.51-1.16,1.65,1.65,0,0,1,1.18-.48,1.66,1.66,0,0,1,1.18.48,1.58,1.58,0,0,1,.5,1.16A1.61,1.61,0,0,1,1364.53,274.8Zm-2.24,26.67V280.39h2.11v21.08Z"/><path class="cls-13" d="M1380.54,279.93a7.9,7.9,0,0,1,6,2.29,8.5,8.5,0,0,1,2.21,6.14v13.11h-2.15V288.36a6.56,6.56,0,0,0-1.62-4.68,6,6,0,0,0-4.57-1.73,7.07,7.07,0,0,0-5.32,2.15q-2.05,2.14-2.06,6.24v11.13h-2.11V280.39H1373v4A7.83,7.83,0,0,1,1380.54,279.93Z"/><path class="cls-13" d="M1413.21,280.39h2.15v21.08h-2.15V296.7a9.93,9.93,0,0,1-3.71,3.84,10.28,10.28,0,0,1-5.35,1.39,11,11,0,0,1,0-22,10.28,10.28,0,0,1,5.35,1.39,9.83,9.83,0,0,1,3.71,3.83ZM1398,297.29a8.59,8.59,0,0,0,6.35,2.62,8.49,8.49,0,0,0,6.32-2.62,9.17,9.17,0,0,0,0-12.73,8.52,8.52,0,0,0-6.32-2.61,8.62,8.62,0,0,0-6.35,2.61,9.12,9.12,0,0,0,0,12.73Z"/><path class="cls-13" d="M1433,279.93a10.53,10.53,0,0,1,7.73,3.18,11.21,11.21,0,0,1,0,15.64,10.53,10.53,0,0,1-7.73,3.18,10.28,10.28,0,0,1-5.38-1.43,9.81,9.81,0,0,1-3.69-3.92v4.89h-2.1V272h2.1v13.32a9.75,9.75,0,0,1,3.69-3.92A10.19,10.19,0,0,1,1433,279.93Zm-6.47,17.36a9,9,0,0,0,12.68,0,9.09,9.09,0,0,0,0-12.73,9,9,0,0,0-12.68,0,9.09,9.09,0,0,0,0,12.73Z"/><path class="cls-13" d="M1451.28,274.8a1.67,1.67,0,0,1-2.36,0,1.58,1.58,0,0,1-.51-1.2,1.56,1.56,0,0,1,.51-1.16,1.69,1.69,0,0,1,2.36,0,1.55,1.55,0,0,1,.5,1.16A1.57,1.57,0,0,1,1451.28,274.8ZM1449,301.47V280.39h2.11v21.08Z"/><path class="cls-13" d="M1457.64,301.47V270.69h2.11v30.78Z"/><path class="cls-13" d="M1468.48,274.8a1.67,1.67,0,0,1-2.36,0,1.58,1.58,0,0,1-.51-1.2,1.56,1.56,0,0,1,.51-1.16,1.65,1.65,0,0,1,1.18-.48,1.66,1.66,0,0,1,1.18.48,1.58,1.58,0,0,1,.5,1.16A1.61,1.61,0,0,1,1468.48,274.8Zm-2.24,26.67V280.39h2.11v21.08Z"/><path class="cls-13" d="M1485.63,282.45h-6.28v13.71a4,4,0,0,0,.68,2.61,2.82,2.82,0,0,0,2.06.9,20.12,20.12,0,0,0,3.54-.1v1.9q-4.26.63-6.34-.59t-2.09-4.72V282.45h-4.63v-2.06h4.63v-5.27l2.15-.63v5.9h6.28Z"/><path class="cls-13" d="M1506.54,280.39h2.28l-9.11,23a11.48,11.48,0,0,1-3.45,4.91,6.76,6.76,0,0,1-4.89,1.58v-2a4.94,4.94,0,0,0,3.64-1.16,9.47,9.47,0,0,0,2.64-3.77l.45-1.16-9.68-21.44h2.27l8.49,18.69Z"/><path class="cls-13" d="M58.41,525.07h2.23v29.51H58.41Z"/><path class="cls-13" d="M77.21,533a7.92,7.92,0,0,1,6,2.3,8.49,8.49,0,0,1,2.21,6.13v13.11H83.24V541.47a6.59,6.59,0,0,0-1.62-4.68A6,6,0,0,0,77,535.07a7,7,0,0,0-5.31,2.15c-1.38,1.43-2.06,3.51-2.06,6.23v11.13H67.56V533.51h2.11v4A7.82,7.82,0,0,1,77.21,533Z"/><path class="cls-13" d="M109.92,525.07H112v29.51h-2.11v-4.89a9.75,9.75,0,0,1-3.69,3.92,10.16,10.16,0,0,1-5.37,1.44,10.88,10.88,0,0,1-10.92-11,10.86,10.86,0,0,1,10.92-11,10.16,10.16,0,0,1,5.37,1.44,9.75,9.75,0,0,1,3.69,3.92ZM94.64,550.41A9.12,9.12,0,1,0,92.05,544,8.6,8.6,0,0,0,94.64,550.41Z"/><path class="cls-13" d="M120.76,527.92a1.69,1.69,0,0,1-1.18.49,1.66,1.66,0,0,1-1.18-.49,1.58,1.58,0,0,1-.51-1.2,1.54,1.54,0,0,1,.51-1.16,1.66,1.66,0,0,1,1.18-.49,1.69,1.69,0,0,1,1.18.49,1.57,1.57,0,0,1,.5,1.16A1.61,1.61,0,0,1,120.76,527.92Zm-2.24,26.66V533.51h2.11v21.07Z"/><path class="cls-13" d="M145.67,533.51h2.15v21.07h-2.15v-4.76a10,10,0,0,1-3.71,3.84,10.41,10.41,0,0,1-5.35,1.39,11,11,0,0,1,0-22,10.41,10.41,0,0,1,5.35,1.39,10,10,0,0,1,3.71,3.84Zm-15.24,16.9a9,9,0,0,0,12.67,0,9.17,9.17,0,0,0,0-12.73,9,9,0,0,0-12.67,0,9.12,9.12,0,0,0,0,12.73Z"/><path class="cls-13" d="M157.89,525.07l-2.27,8.77h-1.94l1.6-8.77Z"/><path class="cls-13" d="M161.77,539a2.73,2.73,0,0,0,1.32,2.41,10.79,10.79,0,0,0,3.2,1.36l3.77,1a6.81,6.81,0,0,1,3.19,1.82,4.81,4.81,0,0,1,1.29,3.52,5.28,5.28,0,0,1-2.08,4.3,8.38,8.38,0,0,1-5.46,1.69,9.56,9.56,0,0,1-5.12-1.29,6.77,6.77,0,0,1-2.89-3.39l1.81-1.06A5,5,0,0,0,163,552a7.48,7.48,0,0,0,4,1,6.86,6.86,0,0,0,3.9-1,3.33,3.33,0,0,0,1.54-2.93,2.9,2.9,0,0,0-1.31-2.48,9.69,9.69,0,0,0-3.18-1.42l-3.78-1a7.12,7.12,0,0,1-3.2-1.76,4.48,4.48,0,0,1-1.31-3.37,5.4,5.4,0,0,1,2-4.26,7.61,7.61,0,0,1,5.16-1.73,8.35,8.35,0,0,1,4.41,1.14,6.85,6.85,0,0,1,2.76,3.08l-1.77,1a4.72,4.72,0,0,0-2.11-2.38,6.64,6.64,0,0,0-3.29-.82,6,6,0,0,0-3.6,1A3.34,3.34,0,0,0,161.77,539Z"/><path class="cls-13" d="M207.68,527.18H193.56V539h13.61v2.1H193.56v13.49h-2.24V525.07h16.36Z"/><path class="cls-13" d="M215,527.92a1.67,1.67,0,0,1-2.36,0,1.58,1.58,0,0,1-.51-1.2,1.54,1.54,0,0,1,.51-1.16,1.67,1.67,0,0,1,2.36,0,1.54,1.54,0,0,1,.51,1.16A1.58,1.58,0,0,1,215,527.92Zm-2.23,26.66V533.51h2.1v21.07Z"/><path class="cls-13" d="M223.44,537.64c1.27-2.95,3.61-4.43,7-4.43v2a7,7,0,0,0-5,1.92,7.5,7.5,0,0,0-2,5.71v11.72h-2.1V533.51h2.1Z"/><path class="cls-13" d="M235.33,539a2.73,2.73,0,0,0,1.32,2.41,10.79,10.79,0,0,0,3.2,1.36l3.77,1a6.81,6.81,0,0,1,3.19,1.82,4.81,4.81,0,0,1,1.29,3.52,5.28,5.28,0,0,1-2.08,4.3,8.38,8.38,0,0,1-5.46,1.69,9.54,9.54,0,0,1-5.12-1.29,6.72,6.72,0,0,1-2.89-3.39l1.81-1.06a5,5,0,0,0,2.21,2.72,7.54,7.54,0,0,0,4,1,6.86,6.86,0,0,0,3.9-1,3.33,3.33,0,0,0,1.54-2.93,2.9,2.9,0,0,0-1.31-2.48,9.74,9.74,0,0,0-3.19-1.42l-3.77-1a7.12,7.12,0,0,1-3.2-1.76,4.48,4.48,0,0,1-1.31-3.37,5.42,5.42,0,0,1,2-4.26,7.65,7.65,0,0,1,5.17-1.73,8.29,8.29,0,0,1,4.4,1.14,6.87,6.87,0,0,1,2.77,3.08l-1.78,1a4.65,4.65,0,0,0-2.1-2.38,6.64,6.64,0,0,0-3.29-.82,6,6,0,0,0-3.61,1A3.36,3.36,0,0,0,235.33,539Z"/><path class="cls-13" d="M263.15,535.57h-6.28v13.7a4,4,0,0,0,.68,2.61,2.81,2.81,0,0,0,2.06.91,21.14,21.14,0,0,0,3.54-.1v1.89c-2.84.42-4.95.23-6.34-.59s-2.09-2.39-2.09-4.72v-13.7h-4.64v-2.06h4.64v-5.27l2.15-.64v5.91h6.28Z"/><path class="cls-13" d="M70.85,591.11A8.46,8.46,0,0,1,74.7,594a8,8,0,0,1-1.32,10.61,10.9,10.9,0,0,1-7,2.21,10.86,10.86,0,0,1-7-2.21A8.06,8.06,0,0,1,58,594a8.44,8.44,0,0,1,3.86-2.9,7.88,7.88,0,0,1-3.15-2.72,7.86,7.86,0,0,1,1.4-9.89,10.34,10.34,0,0,1,12.52,0A7.84,7.84,0,0,1,74,588.39,7.92,7.92,0,0,1,70.85,591.11ZM60.86,603a8.45,8.45,0,0,0,5.48,1.64A8.48,8.48,0,0,0,71.82,603a5.58,5.58,0,0,0,2-4.56,5.5,5.5,0,0,0-2-4.53,8.54,8.54,0,0,0-5.48-1.62A8.5,8.5,0,0,0,60.86,594a5.48,5.48,0,0,0-2,4.53A5.56,5.56,0,0,0,60.86,603Zm-1.1-18.68a5.25,5.25,0,0,0,1.85,4.22,7.94,7.94,0,0,0,9.45,0,5.83,5.83,0,0,0,0-8.5,8.08,8.08,0,0,0-9.49,0A5.29,5.29,0,0,0,59.76,584.36Z"/><path class="cls-13" d="M83.79,606.24a1.87,1.87,0,0,1-1.35.55,1.9,1.9,0,1,1,0-3.8,1.91,1.91,0,0,1,1.35,3.25Z"/><path class="cls-13" d="M98.14,588.87a10.32,10.32,0,0,1,7,2.43,9,9,0,0,1,0,13.11,10.44,10.44,0,0,1-7,2.42,10.88,10.88,0,0,1-5.8-1.56,8.08,8.08,0,0,1-3.52-4.38l1.9-1.1a6.33,6.33,0,0,0,2.7,3.62,8.52,8.52,0,0,0,4.72,1.27,8,8,0,0,0,5.46-1.86,6.86,6.86,0,0,0,0-9.94A8,8,0,0,0,98.12,591H90.24l.94-14.16h15.67V579H93.23l-.64,9.9Z"/><path class="cls-13" d="M135.38,584.82a11,11,0,1,1,0,22A10.27,10.27,0,0,1,130,605.4a9.87,9.87,0,0,1-3.69-3.92V614.8h-2.11V585.29h2.11v4.89a9.75,9.75,0,0,1,3.69-3.92A10.19,10.19,0,0,1,135.38,584.82Zm-6.47,17.37a9,9,0,0,0,12.69,0,8.94,8.94,0,1,0-12.69,0Z"/><path class="cls-13" d="M171.21,576.86h2.24v29.51h-2.24V592.24H154.06v14.13h-2.24V576.86h2.24v13.28h17.15Z"/><path class="cls-13" d="M211.89,606.37,209,598.86H194.24l-2.88,7.51H189l11.47-29.51h2.36l11.42,29.51Zm-16.84-9.62H208.2l-6.58-17.14Z"/><path class="cls-13" d="M218.13,606.37V575.59h2.11v30.78Z"/><path class="cls-13" d="M242.88,606.37H240L228.84,596v10.36h-2.11V576.86h2.11v18l10.66-9.57h2.95l-11.33,10.12Z"/><path class="cls-13" d="M263.53,585.29h2.15v21.08h-2.15V601.6a9.93,9.93,0,0,1-3.71,3.84,10.31,10.31,0,0,1-5.35,1.39,11,11,0,0,1,0-22,10.32,10.32,0,0,1,5.35,1.4,9.83,9.83,0,0,1,3.71,3.83Zm-15.24,16.9a8.59,8.59,0,0,0,6.35,2.62,8.49,8.49,0,0,0,6.32-2.62,9.17,9.17,0,0,0,0-12.73,8.52,8.52,0,0,0-6.32-2.61,9,9,0,0,0-6.35,15.34Z"/><path class="cls-13" d="M272.17,606.37V575.59h2.11v30.78Z"/><path class="cls-13" d="M283,579.7a1.67,1.67,0,0,1-2.36,0,1.58,1.58,0,0,1-.51-1.2,1.56,1.56,0,0,1,.51-1.16,1.65,1.65,0,0,1,1.18-.48,1.66,1.66,0,0,1,1.18.48,1.58,1.58,0,0,1,.5,1.16A1.61,1.61,0,0,1,283,579.7Zm-2.24,26.67V585.29h2.11v21.08Z"/><path class="cls-13" d="M299,584.82a7.9,7.9,0,0,1,6,2.3,8.46,8.46,0,0,1,2.21,6.14v13.11h-2.15V593.26a6.56,6.56,0,0,0-1.62-4.68,5.94,5.94,0,0,0-4.57-1.73,7.07,7.07,0,0,0-5.32,2.15q-2.06,2.14-2.06,6.24v11.13h-2.11V585.29h2.11v4A7.85,7.85,0,0,1,299,584.82Z"/><path class="cls-13" d="M322.63,584.82a9.57,9.57,0,0,1,7.53,3.29,11.48,11.48,0,0,1,2.88,7.8c0,.11,0,.28,0,.51s0,.39,0,.5H313.91a8.55,8.55,0,0,0,2.84,5.72,8.91,8.91,0,0,0,6.09,2.17,9,9,0,0,0,4.43-1.06,7.25,7.25,0,0,0,2.87-2.78l1.85,1.1a9.28,9.28,0,0,1-3.71,3.47,11.4,11.4,0,0,1-5.48,1.29,10.82,10.82,0,0,1-8-3.1,10.65,10.65,0,0,1-3.12-7.9,10.8,10.8,0,0,1,3.06-7.86A10.48,10.48,0,0,1,322.63,584.82Zm0,2a8.43,8.43,0,0,0-6,2.23,8.68,8.68,0,0,0-2.74,5.78h16.94a8.64,8.64,0,0,0-2.68-5.88A7.93,7.93,0,0,0,322.63,586.85Z"/><path class="cls-13" d="M69.5,628.64a13,13,0,0,1,10,4.28,15.89,15.89,0,0,1,0,21,13,13,0,0,1-10,4.28H58.41V628.64Zm0,27.4a10.83,10.83,0,0,0,8.43-3.64,14,14,0,0,0,0-18,10.81,10.81,0,0,0-8.43-3.65H60.64V656Z"/><path class="cls-13" d="M90.74,641.2c1.27-3,3.61-4.42,7-4.42v2a7,7,0,0,0-5,1.92,7.5,7.5,0,0,0-2,5.71v11.72h-2.1V637.07h2.1Z"/><path class="cls-13" d="M104.27,631.49a1.65,1.65,0,0,1-1.18.48,1.66,1.66,0,0,1-1.18-.48,1.65,1.65,0,0,1-.5-1.21,1.56,1.56,0,0,1,.5-1.15,1.67,1.67,0,0,1,2.36,0,1.53,1.53,0,0,1,.51,1.15A1.62,1.62,0,0,1,104.27,631.49ZM102,658.15V637.07h2.11v21.08Z"/><path class="cls-13" d="M120.29,636.61a7.89,7.89,0,0,1,6,2.3,8.47,8.47,0,0,1,2.21,6.13v13.11h-2.15V645a6.56,6.56,0,0,0-1.62-4.68,6,6,0,0,0-4.58-1.73,7.06,7.06,0,0,0-5.31,2.15c-1.38,1.43-2.06,3.51-2.06,6.24v11.13h-2.11V637.07h2.11v4A7.82,7.82,0,0,1,120.29,636.61Z"/><path class="cls-13" d="M150.56,658.15h-2.87L136.52,647.8v10.35h-2.11V628.64h2.11v18l10.67-9.57h2.95L138.8,647.19Z"/><path class="cls-13" d="M1123.34,646.17h14.75v2.11h-17V618.77h16.78v2.11h-14.54v11.46h13.49v2.11h-13.49Z"/><path class="cls-13" d="M1152.8,626.74a7.92,7.92,0,0,1,6,2.29,8.51,8.51,0,0,1,2.21,6.14v13.11h-2.15V635.17a6.56,6.56,0,0,0-1.62-4.68,6,6,0,0,0-4.58-1.73,7.06,7.06,0,0,0-5.31,2.15c-1.38,1.43-2.06,3.51-2.06,6.24v11.13h-2.11V627.2h2.11v4A7.82,7.82,0,0,1,1152.8,626.74Z"/><path class="cls-13" d="M1169,631.33c1.27-3,3.61-4.42,7-4.42v2a7,7,0,0,0-5,1.92,7.5,7.5,0,0,0-2,5.71v11.72h-2.11V627.2H1169Z"/><path class="cls-13" d="M1182.56,621.62a1.69,1.69,0,0,1-2.36,0,1.61,1.61,0,0,1-.5-1.21,1.55,1.55,0,0,1,.5-1.16,1.69,1.69,0,0,1,2.36,0,1.56,1.56,0,0,1,.51,1.16A1.62,1.62,0,0,1,1182.56,621.62Zm-2.23,26.66V627.2h2.11v21.08Z"/><path class="cls-13" d="M1198.58,648.74a11,11,0,1,1,0-22,10.84,10.84,0,0,1,5.57,1.45,8.76,8.76,0,0,1,3.62,3.94l-1.73,1a7.12,7.12,0,0,0-2.93-3.2,8.7,8.7,0,0,0-4.53-1.18,8.58,8.58,0,0,0-6.36,2.59,9.2,9.2,0,0,0,0,12.78,8.62,8.62,0,0,0,6.36,2.59,8.79,8.79,0,0,0,4.53-1.18,7.88,7.88,0,0,0,3.06-3.21l1.77,1.06a9.49,9.49,0,0,1-3.77,3.9A11,11,0,0,1,1198.58,648.74Z"/><path class="cls-13" d="M1222.23,626.74a7.88,7.88,0,0,1,6,2.29,8.48,8.48,0,0,1,2.22,6.14v13.11h-2.15V635.17a6.56,6.56,0,0,0-1.62-4.68,6,6,0,0,0-4.58-1.73,7.06,7.06,0,0,0-5.31,2.15q-2.07,2.15-2.07,6.24v11.13h-2.1V618.77h2.1v12.44A7.84,7.84,0,0,1,1222.23,626.74Z"/><path class="cls-13" d="M1245.84,626.74a9.52,9.52,0,0,1,7.52,3.29,11.44,11.44,0,0,1,2.89,7.79c0,.12,0,.29,0,.51s0,.39,0,.51h-19.1a8.49,8.49,0,0,0,2.85,5.71,9.68,9.68,0,0,0,10.51,1.11,7.19,7.19,0,0,0,2.87-2.78l1.85,1.1a9.31,9.31,0,0,1-3.71,3.48,11.48,11.48,0,0,1-5.48,1.28,10.8,10.8,0,0,1-8-3.1,10.65,10.65,0,0,1-3.12-7.9,10.83,10.83,0,0,1,3-7.86A10.48,10.48,0,0,1,1245.84,626.74Zm0,2a8.5,8.5,0,0,0-6,2.23,8.74,8.74,0,0,0-2.74,5.78h17a8.69,8.69,0,0,0-2.68-5.88A8,8,0,0,0,1245.84,628.76Z"/><path class="cls-13" d="M1279.77,618.77h2.11v29.51h-2.11v-4.89a9.81,9.81,0,0,1-3.69,3.92,10.27,10.27,0,0,1-5.37,1.43,11,11,0,1,1,0-22,10.27,10.27,0,0,1,5.37,1.43,9.81,9.81,0,0,1,3.69,3.92Zm-15.28,25.34a9,9,0,0,0,12.69,0,9.13,9.13,0,0,0,0-12.74,9,9,0,0,0-12.69,0,9.13,9.13,0,0,0,0,12.74Z"/><path class="cls-13" d="M1325.21,627.2h2.08l-6.5,21.08h-2.32l-5.92-18.11-5.92,18.11h-2.32l-6.54-21.08h2.17l5.67,18.34,5.9-18.34h2.26l5.85,18.19Z"/><path class="cls-13" d="M1334.32,621.62a1.66,1.66,0,0,1-1.18.48,1.65,1.65,0,0,1-1.18-.48,1.62,1.62,0,0,1-.51-1.21,1.56,1.56,0,0,1,.51-1.16,1.65,1.65,0,0,1,1.18-.48,1.66,1.66,0,0,1,1.18.48,1.58,1.58,0,0,1,.5,1.16A1.65,1.65,0,0,1,1334.32,621.62Zm-2.24,26.66V627.2h2.11v21.08Z"/><path class="cls-13" d="M1351.47,629.27h-6.28V643a4,4,0,0,0,.68,2.61,2.87,2.87,0,0,0,2.06.91,21.3,21.3,0,0,0,3.54-.11v1.9q-4.26.63-6.34-.59T1343,643v-13.7h-4.63V627.2H1343v-5.27l2.15-.63v5.9h6.28Z"/><path class="cls-13" d="M1366.18,626.74a7.9,7.9,0,0,1,6,2.29,8.47,8.47,0,0,1,2.21,6.14v13.11h-2.15V635.17a6.56,6.56,0,0,0-1.62-4.68,6,6,0,0,0-4.57-1.73,7.07,7.07,0,0,0-5.32,2.15q-2.06,2.15-2.06,6.24v11.13h-2.11V618.77h2.11v12.44A7.83,7.83,0,0,1,1366.18,626.74Z"/><path class="cls-13" d="M1129,700.06l-11-29.51h2.45l9.73,26.6,9.79-26.6h2.4l-11,29.51Z"/><path class="cls-13" d="M1147.58,673.4a1.66,1.66,0,0,1-1.18.48,1.65,1.65,0,0,1-1.18-.48,1.58,1.58,0,0,1-.51-1.2,1.54,1.54,0,0,1,.51-1.16,1.66,1.66,0,0,1,1.18-.49,1.67,1.67,0,0,1,1.18.49,1.57,1.57,0,0,1,.5,1.16A1.61,1.61,0,0,1,1147.58,673.4Zm-2.24,26.66V679h2.11v21.08Z"/><path class="cls-13" d="M1164.73,681.05h-6.28v13.7a4,4,0,0,0,.68,2.61,2.79,2.79,0,0,0,2.06.91,20.26,20.26,0,0,0,3.54-.11v1.9c-2.84.42-5,.23-6.34-.59s-2.09-2.39-2.09-4.72v-13.7h-4.64V679h4.64v-5.27l2.15-.63V679h6.28Z"/><path class="cls-13" d="M1187.07,679h2.15v21.08h-2.15V695.3a9.83,9.83,0,0,1-3.71,3.83,10.29,10.29,0,0,1-5.35,1.4,11,11,0,0,1,0-22,10.28,10.28,0,0,1,5.35,1.39,9.93,9.93,0,0,1,3.71,3.84Zm-15.24,16.91a8.62,8.62,0,0,0,6.35,2.61,8.52,8.52,0,0,0,6.32-2.61,9.17,9.17,0,0,0,0-12.73,8.49,8.49,0,0,0-6.32-2.62,8.59,8.59,0,0,0-6.35,2.62,9.12,9.12,0,0,0,0,12.73Z"/><path class="cls-13" d="M1218.23,678.52a7.46,7.46,0,0,1,5.56,2.15,8.26,8.26,0,0,1,2.11,6v13.36h-2.11V686.7a6.27,6.27,0,0,0-1.54-4.55,5.38,5.38,0,0,0-4.07-1.61,5.88,5.88,0,0,0-4.57,1.94c-1.17,1.3-1.75,3.23-1.75,5.82v11.76h-2.11V686.7a6.51,6.51,0,0,0-1.45-4.55,5.05,5.05,0,0,0-3.94-1.61,6.21,6.21,0,0,0-4.66,2,8.09,8.09,0,0,0-1.88,5.8v11.76h-2.1V679h2.1v3.63a7.21,7.21,0,0,1,6.79-4.09,7.29,7.29,0,0,1,4.05,1.12,6.45,6.45,0,0,1,2.53,3.18,7.51,7.51,0,0,1,3-3.22A8,8,0,0,1,1218.23,678.52Z"/><path class="cls-13" d="M1234.08,673.4a1.69,1.69,0,0,1-1.19.48,1.66,1.66,0,0,1-1.18-.48,1.61,1.61,0,0,1-.5-1.2,1.57,1.57,0,0,1,.5-1.16,1.67,1.67,0,0,1,1.18-.49,1.7,1.7,0,0,1,1.19.49,1.57,1.57,0,0,1,.5,1.16A1.61,1.61,0,0,1,1234.08,673.4Zm-2.24,26.66V679H1234v21.08Z"/><path class="cls-13" d="M1250.09,678.52a7.91,7.91,0,0,1,6,2.3,8.47,8.47,0,0,1,2.21,6.13v13.11h-2.15V687a6.56,6.56,0,0,0-1.62-4.68,6,6,0,0,0-4.57-1.73,7.07,7.07,0,0,0-5.32,2.15,8.71,8.71,0,0,0-2.06,6.24v11.13h-2.11V679h2.11v4A7.83,7.83,0,0,1,1250.09,678.52Z"/><path class="cls-13" d="M1265.65,684.44a2.74,2.74,0,0,0,1.32,2.41,10.79,10.79,0,0,0,3.2,1.36l3.77,1a6.78,6.78,0,0,1,3.19,1.82,4.81,4.81,0,0,1,1.29,3.52,5.27,5.27,0,0,1-2.09,4.3,8.43,8.43,0,0,1-5.45,1.69,9.58,9.58,0,0,1-5.13-1.29,6.75,6.75,0,0,1-2.88-3.39l1.81-1.06a5,5,0,0,0,2.21,2.72,7.52,7.52,0,0,0,4,1,6.81,6.81,0,0,0,3.89-1,3.31,3.31,0,0,0,1.54-2.93,2.88,2.88,0,0,0-1.3-2.48,9.84,9.84,0,0,0-3.19-1.42l-3.77-1a7.12,7.12,0,0,1-3.2-1.76,4.48,4.48,0,0,1-1.31-3.37,5.42,5.42,0,0,1,2-4.26,7.65,7.65,0,0,1,5.17-1.73,8.31,8.31,0,0,1,4.4,1.14,6.85,6.85,0,0,1,2.76,3.08l-1.77,1a4.59,4.59,0,0,0-2.11-2.38,6.61,6.61,0,0,0-3.28-.83,6,6,0,0,0-3.61,1.06A3.33,3.33,0,0,0,1265.65,684.44Z"/><path class="cls-13" d="M1310.92,684.76a8,8,0,0,1,3.67,2.82A7.41,7.41,0,0,1,1316,692a8.06,8.06,0,0,1-8,8H1295.2V670.55H1307a7.78,7.78,0,0,1,7.76,7.76,7.27,7.27,0,0,1-3.8,6.45Zm-4-12.1h-9.53V684H1307a5.25,5.25,0,0,0,3.9-1.67,5.7,5.7,0,0,0,0-8A5.25,5.25,0,0,0,1307,672.66Zm1,25.29a5.53,5.53,0,0,0,4.11-1.75,6,6,0,0,0,0-8.38,5.53,5.53,0,0,0-4.11-1.75h-10.5V698Z"/><path class="cls-13" d="M1324.54,670.55h1.89v29.51h-2.23V673l-6.83,2.13-.55-1.94Z"/><path class="cls-13" d="M1331.91,700.06v-2l10.84-11.13q4.76-4.93,4.76-8.35a6,6,0,0,0-1.85-4.63,6.63,6.63,0,0,0-4.64-1.69,7.24,7.24,0,0,0-7,4.47l-1.9-1.14a9.53,9.53,0,0,1,3.65-4.07,10,10,0,0,1,5.29-1.41,9.05,9.05,0,0,1,6.18,2.28,7.83,7.83,0,0,1,2.59,6.19,9.16,9.16,0,0,1-1.47,4.89,28,28,0,0,1-4.09,5l-9.13,9.44h15.36v2.15Z"/><path class="cls-13" d="M1390,699.26l-2,1.14-3.39-3.57a11.18,11.18,0,0,1-8.83,3.7,10.37,10.37,0,0,1-7-2.26,7.59,7.59,0,0,1-2.61-6,9,9,0,0,1,1.51-5.08,9.69,9.69,0,0,1,4.35-3.52,8.71,8.71,0,0,1-2.36-5.77,7.09,7.09,0,0,1,2.44-5.63,8.68,8.68,0,0,1,5.9-2.13,8.92,8.92,0,0,1,5.06,1.48,7.91,7.91,0,0,1,3.16,4.08l-1.85,1.1a6.42,6.42,0,0,0-2.38-3.29,6.66,6.66,0,0,0-4-1.22,6.28,6.28,0,0,0-4.38,1.56,5.13,5.13,0,0,0-1.73,4,5.71,5.71,0,0,0,.8,3,17.5,17.5,0,0,0,2.39,3l9.23,9.66a16.31,16.31,0,0,0,1.79-5.88l2,1.14A18.2,18.2,0,0,1,1386,695Zm-14.29-.89a9.35,9.35,0,0,0,7.38-3.16l-9.45-9.91a7.75,7.75,0,0,0-3.9,2.84,7.05,7.05,0,0,0-1.28,4.06,5.63,5.63,0,0,0,2,4.54A8,8,0,0,0,1375.75,698.37Z"/><path class="cls-13" d="M1419.76,700.53a15.22,15.22,0,1,1,7.42-28.52,13.72,13.72,0,0,1,5.23,5.16l-2,1.14a11.27,11.27,0,0,0-4.34-4.41,12.37,12.37,0,0,0-6.33-1.66,12.63,12.63,0,0,0-9.42,3.77,13.55,13.55,0,0,0,0,18.59,13.36,13.36,0,0,0,15.79,2.09,11,11,0,0,0,4.38-4.51l2,1.14a13.5,13.5,0,0,1-5.22,5.25A14.9,14.9,0,0,1,1419.76,700.53Z"/></g></g></svg>