<svg xmlns="http://www.w3.org/2000/svg" xmlns:xlink="http://www.w3.org/1999/xlink" viewBox="0 0 1917 1049"><defs><style>.cls-1{fill:none;}.cls-2{fill:#00101e;}.cls-3{clip-path:url(#clip-path);}.cls-4{fill:#fff;}.cls-5{fill:#87d3e0;}</style><clipPath id="clip-path"><path class="cls-1" d="M1061,460.71a26,26,0,0,1-2.59,1.23c-.37.06-11.13,3.34-11.13,3.34l-1.73.31-1.92.68-2.6.49-3.58,1.49-2.54.56-1.79.74-1.55.62a31.65,31.65,0,0,1-3,1.39c-.27,0-3.24.83-3.24.83l-3.53,1-2,.74-1.94.47-2,.74-3.44,1.58-1.94.74s-1-.28-1.21,0a25,25,0,0,1-3.43,1.48l-2.78,1.21-1.76.65-3.34,1.76-2.88.46h-8.25l-10.76.93-9.18,1.21-9,2.13L951.26,489l-2.6.65-4.91,1.3-5.2,1.21L934,495l-5.84,5.19-4.27,5.11-4.82,6.3-4.18,6.59-6.12,9.09L902,538.61l-4.26,7-4.83,9.55-.92,1.58-1.3,3-1.21,1.94-.83,4.83-1.12,8-.83,5.75v6.68l.56,4.36,1.39,8.53,1.94,9.65.84,4.63.46,1.49.93,1.3.09,2.59,1,1.76,1.86,2.51,3.8,12.52L904.05,647l2.32,4.26,4,5.57,2.13,3.89,2.6,3.81,3,3.06,1.85,1.85,3.34,1.49,6.49,2.5,3.62,1.67,4.08,2,5.84,2.13,3.53,1.39,3.8,1,4.73,2,4.54,2,6.5,2.13,6.77,2.14,2.41.83,6.4,1.76,4.63,1.58,6.47,1.39,7.63,1.58,8.81,1.76,5.2.65,8.9,1.3,5.38.83h4.26l9.84.46h2.22l2.88-1.11,4.78-.74,2.82-1.95,8.35-2.5,3.34-.65,5.47-1.58,4-.46,4.63-.19,4.83-.74,7.42-1.58,3.61-1.48,2.6-.09,2.13-.47,1.3-.74,2.51-.46,2.22-.74,9.18.46,11.41.83,9.74.1,1.76.18,3.25.37,2.78.47h6.86l3-.56,10.48.09,2.5,3.81,2.51,3.89,4.82,5.2,2.5,3.33,5.48,6.68,5.65,7.51,3.16,4.83,1,2.5,2.32,10.48,1,4,1.76,5.19,1.67,7.61.65,3.24,1.67,2.6,1.94,1.85.47,3.44-.84,6.3.1,9.28.27,6.4,1.86,9.36,1.58,5.94,2.68,12.33.65,8.26.47,13.08s.09,4.82,0,5.19,0,9.64,0,9.64l.51,17.25.75,12.06v7l-.56,2a28.09,28.09,0,0,0-.09,4.17c.18.65.65,5.85.65,5.85v6l1.39,3.71v3.62s-.93,8.72-.93,9.09v5.94l.46,8.34,1,6.77v5.57s.47,4.26,0,4.63-1,7.05-1,7.05l-.65,4a16,16,0,0,0-.37,2.13v5.38l1.67,2.88,2.51,2.13,3.8,1.95,4.45,4.36,4.92,3.71,9,3.89,2.78,1.58,5.29,3.15,3.62,2.14,1,1v13.26l.65,4.73.37,4.45v7l.46,7.6v2.88l.93,2.41,1.76,3.06.84,1.3V1049h455.74l-.65-4.2-2.13-5.47-2-5.93-1.49-4.27-2.68-8.07-2-6-2.13-5.65-2.78-3.06.18-8.63-.83-4.64-1.21-1.67-5.47-7-2.59-5.2-.65-5.75,1.85-2.41,4.64-2.87,3.62-3.25,1-2.32.55-2.6-.09-3,.28-2-.37-7.33-3-6.68-3.71-5.93-2.32-4.08-1.67-2.23-1-1.58.28-1.67,2.5.47,10.85,5.1,13.45,5.75,6.31,2,3,1.48,8.53,5.19,11.22,6.31,16.14,7.23,6.3,3.53,8.82,3.43,5.37,2,10.76,3.43,5.38,1.3,10.3,2.6,8.81,1.2,6.49.93,4.36.46,2.87-.83,4-2.78,3-2.79,4.73-3.06,10.76-7.14,7.69-5.47,7-6.49,8-8.44,5.65-7.33,5.2-9.18,4.45-9.09,3.62-11,3-9.93,1.49-3.43,1.76-6.49V882.6l2.69-6.12,1-7.33v-9.46l-2.13-12.15-4-12.71-5-11.13-5.1-8.16-4.54-8.44-5.57-7.88-6.77-11.78L1864.6,777l-6.22-14.1-7.14-17.8-1.57-8.53L1848,731l-2.14-4.27-3-7-2.51-15.59-2.78-12L1832,677.35l-6.49-13.54-5.13-9.73L1811,639.33l-12-19.48-12-18.08-2-1.86-.46-11.47-3.46-12.86-6.93-12.11-18.05-19.05-19.54-17.56-6.18-7.17,7.91,2.23L1722,508.31l-10.64-10.63-20-14.59L1682.91,473l-10.14-13.6-8.65-14.6L1650.51,426l-257.12-15.71-140.31-5.44L1239,402l-7.67-.74h-4.2l-2.72.74-8.78-1.49a28.43,28.43,0,0,1-3.34,0c-.37-.12-3.71,0-3.71,0l-6.55,3-4.7,2.85-4.21,3-2.47,2.6-1.73.74-6.55,1-5.45,1.61-2.59.87-4.08-.5-4-.62-6.93-.25-3.83.75-5.07-.25-3.08.74-5.08,3.71-3.59,4.21-2.72,2.35-3.21,2.1-3.84,2.1-3.46,1.61-4.2,4-2.6,1.61s-2.6,3.46-3.09,3.59-3.46,3.34-3.46,3.34l-2,1.36-3.22,1.36-2.35.49-3.21.5-3.59,1.11-6.55,1.85-4,1.12-1.48.24-3.84,2.72-4.57,3.1-1,.61-2.72.13-4.33.25-3.7.37Z"/></clipPath></defs><g id="Layer_2" data-name="Layer 2"><g id="Layer_1-2" data-name="Layer 1"><image width="4279" height="4292" transform="translate(871.17) scale(0.24)" xlink:href="../character-1.png"/><path class="cls-2" d="M358.22,369.44q16.47,9.49,16.47,28.63,0,15.93-11.28,26.13t-27.73,10.2H282.53V309.14h49.39q16.09,0,27.11,9.93t11,25.32Q370,360,358.22,369.44Zm-26.3-37.22h-24.7v27.56h24.7a12.84,12.84,0,0,0,9.57-3.94,13.48,13.48,0,0,0,3.85-9.84,13.66,13.66,0,0,0-3.76-9.84A12.77,12.77,0,0,0,331.92,332.22Zm3.76,79.09a13.91,13.91,0,0,0,10.37-4.2,14.57,14.57,0,0,0,4.12-10.65A14.37,14.37,0,0,0,346.05,386a13.91,13.91,0,0,0-10.37-4.2H307.22v29.52Z"/><path class="cls-2" d="M415.48,410.78h52.79V434.4H390.79V309.14h76.59v23.62h-51.9v26.66H462.9v23.26H415.48Z"/><path class="cls-2" d="M568.48,309.14v23.62H534.66V434.4H510V332.76H476.32V309.14Z"/><path class="cls-2" d="M665.1,309.14v23.62H631.28V434.4H606.59V332.76H573V309.14Z"/><path class="cls-2" d="M703.57,410.78h52.79V434.4H678.88V309.14h76.59v23.62h-51.9v26.66H751v23.26H703.57Z"/><path class="cls-2" d="M842.43,434.4l-25.32-43.49h-18.7V434.4H773.72V309.14h50.1a41.53,41.53,0,0,1,41.69,41.51,38.11,38.11,0,0,1-6.62,21.56,41.31,41.31,0,0,1-17.53,14.94l27.73,47.25Zm-44-102.18v37h25.41a15.69,15.69,0,0,0,12-5.46,18.74,18.74,0,0,0,5-13.15,18.46,18.46,0,0,0-5-13.06,15.84,15.84,0,0,0-12-5.37Z"/><path class="cls-2" d="M353.75,471.52h24.51V596.78H353.75V544.89H307.22v51.89H282.53V471.52h24.69v49.75h46.53Z"/><path class="cls-2" d="M500.66,471.52l-43,76.41v48.85H433.2V547.93l-42.77-76.41h27.92l27.13,52.15,27.26-52.15Z"/><path class="cls-2" d="M562.39,471.52q25.77,0,43,18.07t17.27,44.56q0,26.49-17.27,44.56t-43,18.07H512.64V471.52Zm0,101.64q16.27,0,26.48-10.83t10.2-28.18q0-17.35-10.2-28.18t-26.48-10.83h-25v78Z"/><path class="cls-2" d="M708.94,596.78,683.62,553.3h-18.7v43.48H640.23V471.52h50.1A41.53,41.53,0,0,1,732,513a38.14,38.14,0,0,1-6.62,21.56,41.45,41.45,0,0,1-17.53,14.94l27.73,47.24Zm-44-102.17v37h25.41a15.72,15.72,0,0,0,12-5.46,18.76,18.76,0,0,0,5-13.15,18.46,18.46,0,0,0-5-13.07,15.83,15.83,0,0,0-12-5.36Z"/><path class="cls-2" d="M832.42,596.78l-8-22.55H773l-7.52,22.55H738.83l43.84-125.26h30.6l44.19,125.26Zm-51.37-45.63h35.26L798.23,500Z"/><path class="cls-2" d="M943.35,471.52v23.62H909.53V596.78H884.84V495.14H851.2V471.52Z"/><path class="cls-2" d="M957.13,471.52h24.69V596.78H957.13Z"/><path class="cls-2" d="M1110.48,580.41q-19,18.87-46.17,18.87t-46.07-18.87q-18.88-18.88-18.88-46.26t18.88-46.26Q1037.11,469,1064.31,469t46.17,18.87q19,18.89,19,46.26T1110.48,580.41Zm-75-16.82q11.64,11.53,28.81,11.54t28.81-11.54q11.63-11.55,11.63-29.44t-11.63-29.52Q1081.49,493,1064.31,493t-28.81,11.64q-11.62,11.63-11.63,29.52T1035.5,563.59Z"/><path class="cls-2" d="M1219.27,471.52H1244V596.78h-18.79l-53.68-76.59v76.59h-24.7V471.52h18.77l53.7,76.31Z"/><path class="cls-2" d="M1290.31,594.63a15.13,15.13,0,1,1,4.47-10.73A14.65,14.65,0,0,1,1290.31,594.63Z"/><path class="cls-2" d="M405.46,694.74v9.67q0,26.83-17.18,43.48t-44.37,16.64q-29,0-48.05-18.88T276.8,699.58q0-27.39,18.88-46.35t46.8-19a65.42,65.42,0,0,1,32,8,59,59,0,0,1,22.54,21.2L375.94,675.6a33.31,33.31,0,0,0-13.51-12.53,42.05,42.05,0,0,0-20.13-4.83q-17.9,0-29.44,11.72t-11.54,29.62q0,17.71,11.72,29.25t31,11.54q14.31,0,23.71-6.35a31.61,31.61,0,0,0,12.79-17.44H342.65V694.74Z"/><path class="cls-2" d="M491.71,762l-25.32-43.49h-18.7V762H423V636.77h50.1a41.53,41.53,0,0,1,41.69,41.51,38.11,38.11,0,0,1-6.62,21.56,41.45,41.45,0,0,1-17.53,14.94L518.37,762Zm-44-102.18v37H473.1a15.72,15.72,0,0,0,12-5.46,18.74,18.74,0,0,0,5-13.15,18.44,18.44,0,0,0-5-13.06,15.84,15.84,0,0,0-12-5.37Z"/><path class="cls-2" d="M557.56,738.41h52.79V762H532.87V636.77h76.58v23.62H557.56v26.66H605v23.26H557.56Z"/><path class="cls-2" d="M652.4,738.41h52.78V762H627.7V636.77h76.59v23.62H652.4v26.66h47.42v23.26H652.4Z"/><path class="cls-2" d="M795,636.77h24.7V762H800.92l-53.69-76.59V762H722.54V636.77h18.77l53.7,76.3Z"/><path class="cls-2" d="M867.66,738.41h52.79V762H843V636.77h76.58v23.62H867.66v26.66h47.42v23.26H867.66Z"/><path class="cls-2" d="M1006.52,762,981.2,718.54H962.5V762H937.8V636.77h50.11a41.55,41.55,0,0,1,41.69,41.51,38.11,38.11,0,0,1-6.62,21.56,41.42,41.42,0,0,1-17.54,14.94L1033.18,762Zm-44-102.18v37h25.41a15.74,15.74,0,0,0,12-5.46,18.79,18.79,0,0,0,5-13.15,18.48,18.48,0,0,0-5-13.06,15.85,15.85,0,0,0-12-5.37Z"/><path class="cls-2" d="M329.23,797.21q18.07,0,30.42,12.17a42.33,42.33,0,0,1,0,59.77q-12.34,12.17-30.42,12.17h-22v41.15H282.53V797.21Zm0,61a17.27,17.27,0,0,0,13.07-5.45,20.3,20.3,0,0,0,0-27.11,17.42,17.42,0,0,0-13.07-5.37h-22v37.93Z"/><path class="cls-2" d="M412.8,898.85h47.78v23.62H388.1V797.21h24.7Z"/><path class="cls-2" d="M560.44,922.47l-8-22.54H501l-7.52,22.54H466.84l43.84-125.26h30.6l44.19,125.26Zm-51.38-45.63h35.26l-18.08-51.17Z"/><path class="cls-2" d="M670.11,797.21H694.8V922.47H676l-53.68-76.58v76.58H597.64V797.21h18.77l53.7,76.31Z"/><path class="cls-2" d="M742.76,898.85h52.78v23.62H718.06V797.21h76.59v23.62H742.76V847.5h47.42v23.26H742.76Z"/><path class="cls-2" d="M895.75,797.21v23.62H861.93V922.47H837.24V820.83H803.6V797.21Z"/><path class="cls-2" d="M914.72,920.32a15.13,15.13,0,1,1,4.47-10.73A14.63,14.63,0,0,1,914.72,920.32Z"/><g class="cls-3"><path class="cls-4" d="M358.22,369.44q16.47,9.49,16.46,28.63,0,15.93-11.27,26.13t-27.73,10.2H282.53V309.14h49.39q16.09,0,27.11,9.93t11,25.32Q370,360,358.22,369.44Zm-26.3-37.22h-24.7v27.56h24.7a12.84,12.84,0,0,0,9.57-3.94,13.48,13.48,0,0,0,3.85-9.84,13.66,13.66,0,0,0-3.76-9.84A12.78,12.78,0,0,0,331.92,332.22Zm3.76,79.09a13.91,13.91,0,0,0,10.37-4.2,14.57,14.57,0,0,0,4.12-10.65A14.37,14.37,0,0,0,346.05,386a13.91,13.91,0,0,0-10.37-4.2H307.22v29.52Z"/><path class="cls-4" d="M415.48,410.78h52.79V434.4H390.79V309.14h76.58v23.62H415.48v26.66H462.9v23.26H415.48Z"/><path class="cls-4" d="M568.48,309.14v23.62H534.66V434.4H510V332.76H476.32V309.14Z"/><path class="cls-4" d="M665.1,309.14v23.62H631.28V434.4H606.59V332.76H573V309.14Z"/><path class="cls-4" d="M703.57,410.78h52.79V434.4H678.88V309.14h76.58v23.62H703.57v26.66H751v23.26H703.57Z"/><path class="cls-4" d="M842.43,434.4l-25.32-43.49h-18.7V434.4H773.72V309.14h50.1a41.55,41.55,0,0,1,41.69,41.51,38.11,38.11,0,0,1-6.62,21.56,41.31,41.31,0,0,1-17.53,14.94l27.73,47.25Zm-44-102.18v37h25.41a15.69,15.69,0,0,0,12-5.46,18.74,18.74,0,0,0,5-13.15,18.46,18.46,0,0,0-5-13.06,15.84,15.84,0,0,0-12-5.37Z"/><path class="cls-4" d="M353.75,471.52h24.51V596.78H353.75V544.89H307.22v51.89H282.53V471.52h24.69v49.75h46.53Z"/><path class="cls-4" d="M500.66,471.52l-43,76.41v48.85H433.2V547.93l-42.77-76.41h27.91l27.14,52.15,27.26-52.15Z"/><path class="cls-4" d="M562.39,471.52q25.77,0,43,18.07t17.27,44.56q0,26.49-17.27,44.56t-43,18.07H512.64V471.52Zm0,101.64q16.27,0,26.48-10.83t10.2-28.18q0-17.35-10.2-28.18t-26.48-10.83h-25v78Z"/><path class="cls-4" d="M708.94,596.78,683.62,553.3h-18.7v43.48H640.23V471.52h50.1A41.53,41.53,0,0,1,732,513a38.14,38.14,0,0,1-6.62,21.56,41.45,41.45,0,0,1-17.53,14.94l27.73,47.24Zm-44-102.17v37h25.41a15.72,15.72,0,0,0,12-5.46,18.76,18.76,0,0,0,5-13.15,18.46,18.46,0,0,0-5-13.07,15.83,15.83,0,0,0-12-5.36Z"/><path class="cls-4" d="M832.42,596.78l-8-22.55H773l-7.52,22.55H738.83l43.84-125.26h30.6l44.19,125.26Zm-51.37-45.63h35.26L798.23,500Z"/><path class="cls-4" d="M943.35,471.52v23.62H909.53V596.78H884.84V495.14H851.2V471.52Z"/><path class="cls-4" d="M957.13,471.52h24.69V596.78H957.13Z"/><path class="cls-4" d="M1110.48,580.41q-19,18.87-46.17,18.87t-46.08-18.87q-18.87-18.88-18.87-46.26t18.87-46.26Q1037.11,469,1064.31,469t46.17,18.87q19,18.89,19,46.26T1110.48,580.41Zm-75-16.82q11.64,11.53,28.81,11.54t28.81-11.54q11.63-11.55,11.63-29.44t-11.63-29.52Q1081.49,493,1064.31,493t-28.81,11.64q-11.62,11.63-11.63,29.52T1035.5,563.59Z"/><path class="cls-4" d="M1219.27,471.52H1244V596.78h-18.79l-53.68-76.59v76.59h-24.7V471.52h18.77l53.7,76.31Z"/><path class="cls-4" d="M1290.31,594.63a15.13,15.13,0,1,1,4.47-10.73A14.65,14.65,0,0,1,1290.31,594.63Z"/><path class="cls-4" d="M405.46,694.74v9.67q0,26.83-17.18,43.48t-44.37,16.64q-29,0-48.05-18.88T276.8,699.58q0-27.39,18.88-46.35t46.8-19a65.42,65.42,0,0,1,32,8,59,59,0,0,1,22.54,21.2L375.94,675.6a33.31,33.31,0,0,0-13.51-12.53,42.05,42.05,0,0,0-20.13-4.83q-17.9,0-29.44,11.72t-11.54,29.62q0,17.71,11.72,29.25t31,11.54q14.31,0,23.71-6.35a31.61,31.61,0,0,0,12.79-17.44H342.65V694.74Z"/><path class="cls-4" d="M491.71,762l-25.32-43.49h-18.7V762H423V636.77h50.1a41.55,41.55,0,0,1,41.69,41.51,38.11,38.11,0,0,1-6.62,21.56,41.45,41.45,0,0,1-17.53,14.94L518.37,762Zm-44-102.18v37H473.1a15.72,15.72,0,0,0,12-5.46,18.74,18.74,0,0,0,5-13.15,18.44,18.44,0,0,0-5-13.06,15.84,15.84,0,0,0-12-5.37Z"/><path class="cls-4" d="M557.56,738.41h52.79V762H532.86V636.77h76.59v23.62H557.56v26.66H605v23.26H557.56Z"/><path class="cls-4" d="M652.4,738.41h52.78V762H627.7V636.77h76.59v23.62H652.4v26.66h47.42v23.26H652.4Z"/><path class="cls-4" d="M795,636.77H819.7V762H800.92l-53.69-76.59V762H722.54V636.77h18.77l53.7,76.3Z"/><path class="cls-4" d="M867.66,738.41h52.79V762H843V636.77h76.59v23.62H867.66v26.66h47.42v23.26H867.66Z"/><path class="cls-4" d="M1006.52,762,981.2,718.54H962.5V762H937.8V636.77h50.11a41.55,41.55,0,0,1,41.69,41.51,38.11,38.11,0,0,1-6.62,21.56,41.42,41.42,0,0,1-17.54,14.94L1033.18,762Zm-44-102.18v37h25.41a15.74,15.74,0,0,0,12-5.46,18.79,18.79,0,0,0,5-13.15,18.48,18.48,0,0,0-5-13.06,15.85,15.85,0,0,0-12-5.37Z"/><path class="cls-4" d="M329.23,797.21q18.07,0,30.42,12.17a42.33,42.33,0,0,1,0,59.77q-12.34,12.17-30.42,12.17h-22v41.15H282.53V797.21Zm0,61a17.27,17.27,0,0,0,13.07-5.45,20.3,20.3,0,0,0,0-27.11,17.42,17.42,0,0,0-13.07-5.37h-22v37.93Z"/><path class="cls-4" d="M412.8,898.85h47.77v23.62H388.1V797.21h24.7Z"/><path class="cls-4" d="M560.44,922.47l-8-22.54H501l-7.52,22.54H466.84l43.84-125.26h30.6l44.19,125.26Zm-51.38-45.63h35.26l-18.08-51.17Z"/><path class="cls-4" d="M670.11,797.21H694.8V922.47H676l-53.68-76.58v76.58H597.64V797.21h18.77l53.7,76.31Z"/><path class="cls-4" d="M742.76,898.85h52.78v23.62H718.06V797.21h76.59v23.62H742.76V847.5h47.42v23.26H742.76Z"/><path class="cls-4" d="M895.75,797.21v23.62H861.93V922.47H837.24V820.83H803.6V797.21Z"/><path class="cls-4" d="M914.72,920.32a15.13,15.13,0,1,1,4.47-10.73A14.63,14.63,0,0,1,914.72,920.32Z"/></g><path class="cls-5" d="M286.38,170.18l10,15.39a5.8,5.8,0,0,0,9.73-6.33l-14.21-21.83a5.81,5.81,0,0,0-9.25-.65l-14.35,16.46-.28-.37-12-15.8a5.82,5.82,0,0,0-9.18-.08l-13,16.43-15-16.7a5.7,5.7,0,0,0-4.89-1.91,5.86,5.86,0,0,0-4.43,2.82l-12.93,21.83a5.82,5.82,0,0,0,2,8,5.81,5.81,0,0,0,8-2l8.9-15,14.31,15.94a5.6,5.6,0,0,0,4.5,1.93A5.79,5.79,0,0,0,238.7,186l12.61-15.95,12.09,15.87a5.78,5.78,0,0,0,4.43,2.29,6,6,0,0,0,4.57-2Z"/><path class="cls-5" d="M155.83,170.18l10,15.39a5.8,5.8,0,1,0,9.73-6.33l-14.22-21.83a5.8,5.8,0,0,0-9.24-.65l-14.35,16.46-.28-.37-12-15.8a5.81,5.81,0,0,0-9.17-.08l-13,16.43-15-16.7a5.68,5.68,0,0,0-4.88-1.91A5.84,5.84,0,0,0,79,157.61L66.09,179.44a5.76,5.76,0,0,0-.64,4.4,5.81,5.81,0,0,0,10.63,1.52l8.9-15,14.3,15.94a5.62,5.62,0,0,0,4.51,1.93,5.8,5.8,0,0,0,4.37-2.21l12.6-15.95,12.1,15.87a5.77,5.77,0,0,0,4.43,2.29,6,6,0,0,0,4.57-2Z"/><path class="cls-5" d="M416.92,170.18l10,15.39a5.81,5.81,0,0,0,9.74-6.33l-14.22-21.83a5.8,5.8,0,0,0-9.24-.65l-14.35,16.46-.28-.37-12-15.8a5.82,5.82,0,0,0-9.18-.08l-13,16.43-15-16.7a5.68,5.68,0,0,0-4.89-1.91,5.86,5.86,0,0,0-4.43,2.82l-12.93,21.83a5.81,5.81,0,1,0,10,5.92l8.9-15,14.31,15.94a5.62,5.62,0,0,0,4.51,1.93,5.82,5.82,0,0,0,4.37-2.21l12.6-15.95L394,185.92a5.77,5.77,0,0,0,4.43,2.29,5.94,5.94,0,0,0,4.56-2Z"/><path class="cls-5" d="M547.47,170.18l10,15.39a5.8,5.8,0,1,0,9.73-6.33L553,157.41a5.8,5.8,0,0,0-9.24-.65l-14.35,16.46-.28-.37-12-15.8a5.81,5.81,0,0,0-9.17-.08L495,173.4l-15-16.7a5.68,5.68,0,0,0-4.88-1.91,5.84,5.84,0,0,0-4.43,2.82l-12.93,21.83a5.81,5.81,0,1,0,10,5.92l8.9-15,14.3,15.94a5.62,5.62,0,0,0,4.51,1.93,5.79,5.79,0,0,0,4.37-2.21l12.6-15.95,12.1,15.87a5.77,5.77,0,0,0,4.43,2.29,6,6,0,0,0,4.57-2Z"/><path class="cls-5" d="M221.11,216.88l10,15.39a5.81,5.81,0,0,0,9.73-6.34L226.64,204.1a5.8,5.8,0,0,0-9.24-.65l-14.35,16.46-.28-.36-12-15.8a5.75,5.75,0,0,0-4.56-2.29,5.82,5.82,0,0,0-4.61,2.21l-13,16.42-15-16.7a5.67,5.67,0,0,0-4.88-1.9,5.79,5.79,0,0,0-4.43,2.82l-12.93,21.83a5.8,5.8,0,0,0,2,8,5.82,5.82,0,0,0,8-2l8.9-15L164.56,233a5.57,5.57,0,0,0,4.5,1.93,5.78,5.78,0,0,0,4.37-2.2l12.61-16,12.09,15.88a5.8,5.8,0,0,0,4.43,2.28,5.94,5.94,0,0,0,4.57-2Z"/><path class="cls-5" d="M90.56,216.88l10,15.39a5.8,5.8,0,0,0,8,1.69,5.82,5.82,0,0,0,1.7-8L96.1,204.1a5.8,5.8,0,0,0-9.24-.65L72.51,219.91l-.28-.36-12-15.8a5.8,5.8,0,0,0-9.17-.08l-13,16.42-15-16.7a5.68,5.68,0,0,0-4.89-1.9,5.83,5.83,0,0,0-4.43,2.82L.81,226.14a5.81,5.81,0,0,0,10,5.92l8.9-15L34,233a5.59,5.59,0,0,0,4.51,1.93,5.79,5.79,0,0,0,4.37-2.2l12.6-16,12.1,15.88A5.79,5.79,0,0,0,72,234.9a5.94,5.94,0,0,0,4.57-2Z"/><path class="cls-5" d="M351.65,216.88l10,15.39a5.81,5.81,0,0,0,9.73-6.34L357.19,204.1a5.81,5.81,0,0,0-9.25-.65L333.6,219.91l-.28-.36-12-15.8a5.81,5.81,0,0,0-9.18-.08l-13,16.42-15-16.7a5.69,5.69,0,0,0-4.89-1.9,5.81,5.81,0,0,0-4.43,2.82L261.9,226.14a5.81,5.81,0,0,0,10,5.92l8.9-15L295.1,233a5.57,5.57,0,0,0,4.5,1.93,5.81,5.81,0,0,0,4.38-2.2l12.6-16,12.1,15.88a5.78,5.78,0,0,0,4.42,2.28,5.92,5.92,0,0,0,4.57-2Z"/><path class="cls-5" d="M482.19,216.88l10,15.39a5.8,5.8,0,0,0,8,1.69,5.82,5.82,0,0,0,1.7-8L487.73,204.1a5.8,5.8,0,0,0-9.24-.65l-14.35,16.46-.28-.36-12-15.8a5.8,5.8,0,0,0-9.17-.08l-13,16.42-15-16.7a5.67,5.67,0,0,0-4.88-1.9,5.83,5.83,0,0,0-4.44,2.82l-12.93,21.83a5.81,5.81,0,0,0,10,5.92l8.9-15L425.64,233a5.59,5.59,0,0,0,4.51,1.93,5.79,5.79,0,0,0,4.37-2.2l12.6-16,12.1,15.88a5.79,5.79,0,0,0,4.43,2.28,5.94,5.94,0,0,0,4.57-2Z"/></g></g></svg>